<svg xmlns="http://www.w3.org/2000/svg" xmlns:xlink="http://www.w3.org/1999/xlink" width="6912" zoomAndPan="magnify" viewBox="0 0 5184 2592.000001" height="3456" preserveAspectRatio="xMidYMid meet" version="1.0"><defs><g/><clipPath id="620eea9460"><path d="M 1625 992.09375 L 1856 992.09375 L 1856 1263.488281 L 1625 1263.488281 Z M 1625 992.09375 " clip-rule="nonzero"/></clipPath></defs><g fill="#000000" fill-opacity="1"><g transform="translate(667.8153, 1240.021645)"><g><path d="M 103.320312 -196 L 21.839844 -196 C 19.320312 -196 17.640625 -194.320312 17.640625 -191.800781 C 17.640625 -189.5625 19.320312 -188.160156 21.839844 -188.160156 L 32.761719 -188.160156 L 32.761719 -7.839844 L 19.320312 -7.839844 C 17.082031 -7.839844 15.398438 -6.441406 15.398438 -3.921875 C 15.398438 -1.398438 17.082031 0 19.320312 0 L 90.160156 0 C 92.402344 0 94.082031 -1.398438 94.082031 -3.921875 C 94.082031 -6.441406 92.402344 -7.839844 90.160156 -7.839844 L 76.441406 -7.839844 L 76.441406 -79.519531 L 103.320312 -79.519531 C 138.601562 -79.519531 159.042969 -102.761719 159.042969 -138.039062 C 159.042969 -172.761719 138.601562 -196 103.320312 -196 Z M 68.039062 -7.839844 L 41.160156 -7.839844 L 41.160156 -188.160156 L 68.039062 -188.160156 Z M 103.320312 -87.359375 L 76.441406 -87.359375 L 76.441406 -188.160156 L 103.320312 -188.160156 C 107.519531 -188.160156 111.441406 -187.882812 115.082031 -187.042969 L 115.082031 -88.480469 C 111.441406 -87.640625 107.519531 -87.359375 103.320312 -87.359375 Z M 123.480469 -91 L 123.480469 -184.519531 C 141.121094 -177.519531 150.640625 -160.441406 150.640625 -138.039062 C 150.640625 -115.082031 141.121094 -98 123.480469 -91 Z M 123.480469 -91 "/></g></g></g><g fill="#000000" fill-opacity="1"><g transform="translate(906.098152, 1240.021645)"><g><path d="M 110.039062 -200.480469 C 49 -200.480469 8.398438 -159.320312 8.398438 -98 C 8.398438 -36.960938 49 4.199219 110.039062 4.199219 C 170.800781 4.199219 211.402344 -36.960938 211.402344 -98 C 211.402344 -159.320312 170.800781 -200.480469 110.039062 -200.480469 Z M 59.921875 -15.960938 L 59.921875 -180.320312 C 73.921875 -188.160156 91 -192.640625 110.039062 -192.640625 C 129.082031 -192.640625 145.882812 -188.160156 159.882812 -180.320312 L 159.882812 -15.960938 C 145.882812 -8.121094 129.082031 -3.640625 110.039062 -3.640625 C 91 -3.640625 73.921875 -8.121094 59.921875 -15.960938 Z M 16.519531 -98 C 16.519531 -131.320312 29.398438 -158.199219 51.519531 -174.722656 L 51.519531 -21.558594 C 29.398438 -37.800781 16.519531 -64.679688 16.519531 -98 Z M 168.28125 -21.558594 L 168.28125 -174.722656 C 190.402344 -158.480469 203.28125 -131.601562 203.28125 -98 C 203.28125 -64.679688 190.402344 -37.800781 168.28125 -21.558594 Z M 168.28125 -21.558594 "/></g></g></g><g fill="#000000" fill-opacity="1"><g transform="translate(1200.941269, 1240.021645)"><g><path d="M 121.519531 -83.71875 L 38.359375 -182.28125 C 46.480469 -188.160156 57.679688 -191.800781 71.679688 -191.800781 C 93.800781 -191.800781 114.800781 -175.5625 114.800781 -159.320312 L 114.800781 -154.839844 C 114.800781 -152.601562 116.761719 -150.640625 119 -150.640625 C 121.242188 -150.640625 123.199219 -152.601562 123.199219 -154.839844 L 123.199219 -196 C 123.199219 -198.242188 121.242188 -199.921875 119 -199.921875 C 116.761719 -199.921875 114.800781 -198.242188 114.800781 -196 L 114.800781 -180.601562 C 105 -192.363281 88.199219 -200.203125 71.679688 -200.203125 C 37.242188 -200.203125 16.238281 -180.320312 16.238281 -154.839844 C 16.238281 -141.679688 22.398438 -127.121094 34.160156 -113.121094 L 113.121094 -19.039062 C 103.878906 -10.078125 90.160156 -4.199219 73.359375 -4.199219 C 45.359375 -4.199219 20.441406 -21.839844 20.441406 -41.441406 L 20.441406 -49.28125 C 20.441406 -51.519531 18.480469 -53.199219 16.238281 -53.199219 C 14 -53.199219 12.039062 -51.519531 12.039062 -49.28125 L 12.039062 0 C 12.039062 2.238281 14 3.921875 16.238281 3.921875 C 18.480469 3.921875 20.441406 2.238281 20.441406 0 L 20.441406 -18.761719 C 31.921875 -4.480469 53.480469 4.199219 73.359375 4.199219 C 110.320312 4.199219 134.679688 -21.28125 134.679688 -49.28125 C 134.679688 -61.039062 130.761719 -72.800781 121.519531 -83.71875 Z M 24.640625 -154.839844 C 24.640625 -162.960938 27.441406 -170.519531 32.199219 -176.679688 L 115.082031 -78.402344 C 122.640625 -69.441406 126.28125 -59.082031 126.28125 -49.28125 C 126.28125 -40.878906 123.480469 -32.480469 118.722656 -25.480469 L 40.601562 -118.441406 C 30.238281 -131.039062 24.640625 -143.359375 24.640625 -154.839844 Z M 24.640625 -154.839844 "/></g></g></g><g fill="#000000" fill-opacity="1"><g transform="translate(1419.904015, 1240.021645)"><g><path d="M 94.921875 -7.839844 L 78.121094 -7.839844 L 78.121094 -188.160156 L 92.121094 -188.160156 C 94.359375 -188.160156 96.039062 -189.839844 96.039062 -192.082031 C 96.039062 -194.320312 94.359375 -196 92.121094 -196 L 21.558594 -196 C 18.761719 -196 17.082031 -194.320312 17.082031 -192.082031 C 17.082031 -189.839844 18.761719 -188.160156 21.558594 -188.160156 L 34.441406 -188.160156 L 34.441406 -7.839844 L 19.320312 -7.839844 C 17.082031 -7.839844 15.398438 -6.160156 15.398438 -3.921875 C 15.398438 -1.398438 17.082031 0 19.320312 0 L 94.921875 0 C 97.160156 0 98.839844 -1.398438 98.839844 -3.921875 C 98.839844 -6.160156 97.160156 -7.839844 94.921875 -7.839844 Z M 42.839844 -7.839844 L 42.839844 -188.160156 L 69.71875 -188.160156 L 69.71875 -7.839844 Z M 42.839844 -7.839844 "/></g></g></g><g fill="#000000" fill-opacity="1"><g transform="translate(1609.186638, 1240.021645)"><g/></g></g><g fill="#000000" fill-opacity="1"><g transform="translate(1768.22888, 1240.021645)"><g/></g></g><g fill="#000000" fill-opacity="1"><g transform="translate(1927.271339, 1240.021645)"><g><path d="M 196.5625 -7.839844 L 185.082031 -7.839844 L 128.242188 -192.363281 C 127.402344 -194.882812 125.722656 -196 123.480469 -196 L 62.160156 -196 C 60.199219 -196 58.519531 -194.320312 58.519531 -192.082031 C 58.519531 -189.839844 60.199219 -188.160156 62.160156 -188.160156 L 78.402344 -188.160156 L 20.160156 -7.839844 L 4.480469 -7.839844 C 2.519531 -7.839844 0.839844 -5.878906 0.839844 -3.921875 C 0.839844 -1.679688 2.519531 0 4.480469 0 L 47.601562 0 C 49.558594 0 51.242188 -1.679688 51.242188 -3.921875 C 51.242188 -5.878906 49.558594 -7.839844 47.601562 -7.839844 L 28.839844 -7.839844 L 44.242188 -55.441406 L 125.441406 -55.441406 L 140.28125 -7.839844 L 124.601562 -7.839844 C 122.640625 -7.839844 120.960938 -5.878906 120.960938 -3.921875 C 120.960938 -1.679688 122.640625 0 124.601562 0 L 196.5625 0 C 198.519531 0 200.203125 -1.679688 200.203125 -3.921875 C 200.203125 -5.878906 198.519531 -7.839844 196.5625 -7.839844 Z M 148.960938 -7.839844 L 93.519531 -188.160156 L 120.960938 -188.160156 L 176.402344 -7.839844 Z M 123.199219 -63.28125 L 46.761719 -63.28125 L 85.960938 -183.960938 Z M 123.199219 -63.28125 "/></g></g></g><g fill="#000000" fill-opacity="1"><g transform="translate(2204.19421, 1240.021645)"><g><path d="M 188.160156 -196 L 142.242188 -196 C 139.722656 -196 138.039062 -194.320312 138.039062 -192.082031 C 138.039062 -189.839844 139.722656 -188.160156 142.242188 -188.160156 L 160.722656 -188.160156 L 160.722656 -72.519531 L 76.160156 -194.882812 C 75.601562 -195.722656 74.480469 -196 73.640625 -196 L 13.71875 -196 C 11.761719 -196 10.078125 -194.601562 10.078125 -192.082031 C 10.078125 -189.839844 11.761719 -188.160156 13.71875 -188.160156 L 29.121094 -188.160156 L 29.121094 -7.839844 L 11.480469 -7.839844 C 9.519531 -7.839844 7.558594 -6.160156 7.558594 -3.921875 C 7.558594 -1.398438 9.519531 0 11.480469 0 L 63 0 C 65.242188 0 67.199219 -1.398438 67.199219 -3.921875 C 67.199219 -6.160156 65.242188 -7.839844 63 -7.839844 L 37.519531 -7.839844 L 37.519531 -174.441406 L 157.640625 -1.121094 C 160.160156 2.519531 162.679688 4.199219 165.199219 4.199219 C 167.722656 4.199219 169.121094 1.121094 169.121094 -4.199219 L 169.121094 -188.160156 L 188.160156 -188.160156 C 190.402344 -188.160156 192.082031 -189.839844 192.082031 -192.082031 C 192.082031 -194.320312 190.402344 -196 188.160156 -196 Z M 160.722656 -11.199219 L 38.082031 -188.160156 L 70.839844 -188.160156 L 160.722656 -58.242188 Z M 160.722656 -11.199219 "/></g></g></g><g fill="#000000" fill-opacity="1"><g transform="translate(2478.877449, 1240.021645)"><g><path d="M 110.039062 -200.480469 C 49 -200.480469 8.398438 -159.320312 8.398438 -98 C 8.398438 -36.960938 49 4.199219 110.039062 4.199219 C 170.800781 4.199219 211.402344 -36.960938 211.402344 -98 C 211.402344 -159.320312 170.800781 -200.480469 110.039062 -200.480469 Z M 59.921875 -15.960938 L 59.921875 -180.320312 C 73.921875 -188.160156 91 -192.640625 110.039062 -192.640625 C 129.082031 -192.640625 145.882812 -188.160156 159.882812 -180.320312 L 159.882812 -15.960938 C 145.882812 -8.121094 129.082031 -3.640625 110.039062 -3.640625 C 91 -3.640625 73.921875 -8.121094 59.921875 -15.960938 Z M 16.519531 -98 C 16.519531 -131.320312 29.398438 -158.199219 51.519531 -174.722656 L 51.519531 -21.558594 C 29.398438 -37.800781 16.519531 -64.679688 16.519531 -98 Z M 168.28125 -21.558594 L 168.28125 -174.722656 C 190.402344 -158.480469 203.28125 -131.601562 203.28125 -98 C 203.28125 -64.679688 190.402344 -37.800781 168.28125 -21.558594 Z M 168.28125 -21.558594 "/></g></g></g><g fill="#000000" fill-opacity="1"><g transform="translate(2773.720398, 1240.021645)"><g><path d="M 188.160156 -196 L 142.242188 -196 C 139.722656 -196 138.039062 -194.320312 138.039062 -192.082031 C 138.039062 -189.839844 139.722656 -188.160156 142.242188 -188.160156 L 160.722656 -188.160156 L 160.722656 -72.519531 L 76.160156 -194.882812 C 75.601562 -195.722656 74.480469 -196 73.640625 -196 L 13.71875 -196 C 11.761719 -196 10.078125 -194.601562 10.078125 -192.082031 C 10.078125 -189.839844 11.761719 -188.160156 13.71875 -188.160156 L 29.121094 -188.160156 L 29.121094 -7.839844 L 11.480469 -7.839844 C 9.519531 -7.839844 7.558594 -6.160156 7.558594 -3.921875 C 7.558594 -1.398438 9.519531 0 11.480469 0 L 63 0 C 65.242188 0 67.199219 -1.398438 67.199219 -3.921875 C 67.199219 -6.160156 65.242188 -7.839844 63 -7.839844 L 37.519531 -7.839844 L 37.519531 -174.441406 L 157.640625 -1.121094 C 160.160156 2.519531 162.679688 4.199219 165.199219 4.199219 C 167.722656 4.199219 169.121094 1.121094 169.121094 -4.199219 L 169.121094 -188.160156 L 188.160156 -188.160156 C 190.402344 -188.160156 192.082031 -189.839844 192.082031 -192.082031 C 192.082031 -194.320312 190.402344 -196 188.160156 -196 Z M 160.722656 -11.199219 L 38.082031 -188.160156 L 70.839844 -188.160156 L 160.722656 -58.242188 Z M 160.722656 -11.199219 "/></g></g></g><g fill="#000000" fill-opacity="1"><g transform="translate(3048.403397, 1240.021645)"><g><path d="M 173.882812 -54.878906 C 173.882812 -77.839844 159.601562 -97.441406 139.160156 -105 C 155.679688 -112.5625 167.441406 -129.359375 167.441406 -148.402344 C 167.441406 -174.441406 145.882812 -196 119.839844 -196 L 21.839844 -196 C 19.039062 -196 17.640625 -194.042969 17.640625 -192.082031 C 17.640625 -190.121094 19.039062 -188.160156 21.839844 -188.160156 L 34.71875 -188.160156 L 34.71875 -7.839844 L 19.601562 -7.839844 C 16.800781 -7.839844 15.398438 -5.601562 15.398438 -3.921875 C 15.398438 -1.960938 16.800781 0 19.601562 0 L 120.402344 0 C 150.082031 -0.28125 173.882812 -24.640625 173.882812 -54.878906 Z M 43.121094 -7.839844 L 43.121094 -188.160156 L 70 -188.160156 L 70 -7.839844 Z M 125.441406 -187.601562 L 125.441406 -108.921875 C 123.480469 -108.921875 121.800781 -108.640625 119.839844 -108.640625 L 78.402344 -108.640625 L 78.402344 -188.160156 L 119.839844 -188.160156 C 121.800781 -188.160156 123.480469 -187.882812 125.441406 -187.601562 Z M 159.042969 -148.402344 C 159.042969 -131.601562 148.402344 -117.039062 133.839844 -111.441406 L 133.839844 -185.359375 C 148.402344 -179.480469 159.042969 -164.921875 159.042969 -148.402344 Z M 119.839844 -7.839844 L 78.402344 -7.839844 L 78.402344 -100.800781 L 119.839844 -100.800781 C 121.800781 -100.800781 123.480469 -100.800781 125.441406 -100.519531 L 125.441406 -8.121094 C 123.480469 -7.839844 121.800781 -7.839844 119.839844 -7.839844 Z M 133.839844 -10.078125 L 133.839844 -98.5625 C 152.320312 -92.679688 165.480469 -75.320312 165.480469 -54.878906 C 165.480469 -33.878906 152.320312 -16.238281 133.839844 -10.078125 Z M 133.839844 -10.078125 "/></g></g></g><g fill="#000000" fill-opacity="1"><g transform="translate(3311.326494, 1240.021645)"><g><path d="M 110.039062 -200.480469 C 49 -200.480469 8.398438 -159.320312 8.398438 -98 C 8.398438 -36.960938 49 4.199219 110.039062 4.199219 C 170.800781 4.199219 211.402344 -36.960938 211.402344 -98 C 211.402344 -159.320312 170.800781 -200.480469 110.039062 -200.480469 Z M 59.921875 -15.960938 L 59.921875 -180.320312 C 73.921875 -188.160156 91 -192.640625 110.039062 -192.640625 C 129.082031 -192.640625 145.882812 -188.160156 159.882812 -180.320312 L 159.882812 -15.960938 C 145.882812 -8.121094 129.082031 -3.640625 110.039062 -3.640625 C 91 -3.640625 73.921875 -8.121094 59.921875 -15.960938 Z M 16.519531 -98 C 16.519531 -131.320312 29.398438 -158.199219 51.519531 -174.722656 L 51.519531 -21.558594 C 29.398438 -37.800781 16.519531 -64.679688 16.519531 -98 Z M 168.28125 -21.558594 L 168.28125 -174.722656 C 190.402344 -158.480469 203.28125 -131.601562 203.28125 -98 C 203.28125 -64.679688 190.402344 -37.800781 168.28125 -21.558594 Z M 168.28125 -21.558594 "/></g></g></g><g fill="#000000" fill-opacity="1"><g transform="translate(3606.169682, 1240.021645)"><g><path d="M 196.5625 -7.839844 L 185.082031 -7.839844 L 128.242188 -192.363281 C 127.402344 -194.882812 125.722656 -196 123.480469 -196 L 62.160156 -196 C 60.199219 -196 58.519531 -194.320312 58.519531 -192.082031 C 58.519531 -189.839844 60.199219 -188.160156 62.160156 -188.160156 L 78.402344 -188.160156 L 20.160156 -7.839844 L 4.480469 -7.839844 C 2.519531 -7.839844 0.839844 -5.878906 0.839844 -3.921875 C 0.839844 -1.679688 2.519531 0 4.480469 0 L 47.601562 0 C 49.558594 0 51.242188 -1.679688 51.242188 -3.921875 C 51.242188 -5.878906 49.558594 -7.839844 47.601562 -7.839844 L 28.839844 -7.839844 L 44.242188 -55.441406 L 125.441406 -55.441406 L 140.28125 -7.839844 L 124.601562 -7.839844 C 122.640625 -7.839844 120.960938 -5.878906 120.960938 -3.921875 C 120.960938 -1.679688 122.640625 0 124.601562 0 L 196.5625 0 C 198.519531 0 200.203125 -1.679688 200.203125 -3.921875 C 200.203125 -5.878906 198.519531 -7.839844 196.5625 -7.839844 Z M 148.960938 -7.839844 L 93.519531 -188.160156 L 120.960938 -188.160156 L 176.402344 -7.839844 Z M 123.199219 -63.28125 L 46.761719 -63.28125 L 85.960938 -183.960938 Z M 123.199219 -63.28125 "/></g></g></g><g fill="#000000" fill-opacity="1"><g transform="translate(3883.092673, 1240.021645)"><g><path d="M 179.480469 -7.839844 L 166.882812 -7.839844 L 166.882812 -55.441406 C 166.882812 -73.359375 155.121094 -88.480469 139.160156 -94.082031 C 156.242188 -103.039062 168 -120.960938 168 -142.242188 C 168 -176.960938 145.042969 -196 112.839844 -196 L 21 -196 C 18.480469 -196 17.082031 -194.882812 17.082031 -192.640625 C 17.082031 -190.121094 18.480469 -188.441406 21 -188.441406 L 34.160156 -188.441406 L 34.160156 -7.839844 L 19.320312 -7.839844 C 17.082031 -7.839844 15.398438 -6.160156 15.398438 -3.921875 C 15.398438 -1.679688 17.082031 0 19.320312 0 L 86.519531 0 C 89.039062 0 90.441406 -1.679688 90.441406 -3.921875 C 90.441406 -6.160156 89.039062 -7.839844 86.519531 -7.839844 L 77.839844 -7.839844 L 77.839844 -88.480469 L 122.082031 -88.480469 L 122.082031 -4.199219 C 122.082031 -1.679688 123.761719 0 126.28125 0 L 179.480469 0 C 181.722656 0 183.679688 -1.398438 183.679688 -3.921875 C 183.679688 -6.160156 181.722656 -7.839844 179.480469 -7.839844 Z M 69.441406 -7.839844 L 42.558594 -7.839844 L 42.558594 -188.441406 L 69.441406 -188.441406 Z M 115.359375 -96.320312 L 77.839844 -96.320312 L 77.839844 -188.441406 L 112.839844 -188.441406 C 115.921875 -188.441406 119 -188.160156 122.082031 -187.882812 L 122.082031 -96.878906 C 119.839844 -96.601562 117.601562 -96.320312 115.359375 -96.320312 Z M 159.601562 -142.242188 C 159.601562 -122.359375 147.5625 -105.5625 130.480469 -99.121094 L 130.480469 -185.921875 C 148.402344 -180.320312 159.601562 -165.480469 159.601562 -142.242188 Z M 130.480469 -7.839844 L 130.480469 -88.199219 C 146.160156 -85.960938 158.480469 -71.679688 158.480469 -55.441406 L 158.480469 -7.839844 Z M 130.480469 -7.839844 "/></g></g></g><g fill="#000000" fill-opacity="1"><g transform="translate(4150.215565, 1240.021645)"><g><path d="M 100.519531 -196 L 21.28125 -196 C 19.039062 -196 17.359375 -194.320312 17.359375 -192.082031 C 17.359375 -189.839844 19.039062 -188.160156 21.28125 -188.160156 L 34.71875 -188.160156 L 34.71875 -7.839844 L 19.320312 -7.839844 C 17.082031 -7.839844 15.398438 -6.160156 15.398438 -3.921875 C 15.398438 -1.398438 17.082031 0 19.320312 0 L 100.519531 0 C 159.320312 0 198.519531 -39.199219 198.519531 -98.28125 C 198.519531 -157.082031 159.320312 -196 100.519531 -196 Z M 43.121094 -7.839844 L 43.121094 -188.160156 L 70 -188.160156 L 70 -7.839844 Z M 100.519531 -7.839844 L 78.402344 -7.839844 L 78.402344 -188.160156 L 100.519531 -188.160156 C 119.5625 -188.160156 136.359375 -183.679688 150.082031 -175.28125 L 150.082031 -20.71875 C 136.359375 -12.320312 119.5625 -7.839844 100.519531 -7.839844 Z M 158.480469 -26.601562 L 158.480469 -169.679688 C 178.359375 -153.722656 190.121094 -128.800781 190.121094 -98.28125 C 190.121094 -67.761719 178.359375 -42.558594 158.480469 -26.601562 Z M 158.480469 -26.601562 "/></g></g></g><g fill="#000000" fill-opacity="1"><g transform="translate(4432.178532, 1240.021645)"><g/></g></g><g clip-path="url(#620eea9460)"><path fill="#000000" d="M 1627.214844 1097.296875 C 1627.484375 1100.210938 1628.023438 1103.078125 1628.832031 1105.886719 C 1628.871094 1106.042969 1628.898438 1106.148438 1628.898438 1106.148438 L 1628.898438 1106.140625 C 1628.914062 1106.191406 1628.925781 1106.242188 1628.941406 1106.292969 C 1638.007812 1075.828125 1677.890625 1052.179688 1727.527344 1048.519531 L 1727.527344 1163.570312 L 1685.429688 1166.5 C 1683.679688 1164.121094 1680.875 1162.566406 1677.695312 1162.566406 C 1672.390625 1162.566406 1668.089844 1166.878906 1668.089844 1172.195312 C 1668.089844 1177.511719 1672.390625 1181.820312 1677.695312 1181.820312 C 1681.066406 1181.820312 1684.027344 1180.078125 1685.738281 1177.449219 L 1727.527344 1180.824219 L 1727.527344 1197.261719 C 1715.175781 1202.464844 1706.5 1214.703125 1706.5 1228.96875 C 1706.5 1247.957031 1721.863281 1263.351562 1740.8125 1263.351562 C 1759.761719 1263.351562 1775.125 1247.957031 1775.125 1228.96875 C 1775.125 1214.703125 1766.449219 1202.464844 1754.097656 1197.261719 L 1754.097656 1180.824219 L 1795.902344 1177.449219 C 1797.617188 1180.078125 1800.578125 1181.820312 1803.945312 1181.820312 C 1809.253906 1181.820312 1813.554688 1177.511719 1813.554688 1172.195312 C 1813.554688 1166.878906 1809.253906 1162.566406 1803.945312 1162.566406 C 1800.769531 1162.566406 1797.960938 1164.121094 1796.214844 1166.5 L 1754.097656 1163.570312 L 1754.097656 1048.503906 C 1803.867188 1052.089844 1843.886719 1075.773438 1852.96875 1106.296875 C 1853.886719 1103.214844 1854.480469 1100.0625 1854.746094 1096.851562 C 1856.5625 1084.277344 1857.839844 1061.546875 1847.28125 1045.242188 C 1847.972656 1051.066406 1847.605469 1058.488281 1843.664062 1062.113281 C 1834.878906 1050.675781 1821.386719 1040.925781 1804.753906 1033.867188 C 1804.476562 1033.746094 1804.1875 1033.636719 1803.910156 1033.519531 L 1803.910156 1033.460938 C 1803.542969 1033.335938 1803.199219 1033.210938 1802.835938 1033.082031 C 1799.9375 1031.90625 1796.957031 1030.796875 1793.882812 1029.789062 C 1750.699219 1012.785156 1740.957031 992.140625 1740.957031 992.140625 L 1740.953125 992.636719 L 1740.953125 992.140625 C 1740.953125 992.140625 1731.183594 1012.855469 1687.808594 1029.875 C 1684.894531 1030.839844 1682.066406 1031.886719 1679.308594 1033 C 1678.867188 1033.152344 1678.449219 1033.308594 1678 1033.460938 L 1678 1033.527344 C 1660.984375 1040.613281 1647.167969 1050.488281 1638.234375 1062.113281 C 1634.292969 1058.492188 1633.921875 1051.070312 1634.613281 1045.242188 C 1623.921875 1061.75 1625.363281 1084.828125 1627.214844 1097.300781 Z M 1740.808594 1246.152344 C 1731.335938 1246.152344 1723.660156 1238.457031 1723.660156 1228.96875 C 1723.660156 1219.480469 1731.335938 1211.785156 1740.808594 1211.785156 C 1750.277344 1211.785156 1757.953125 1219.476562 1757.953125 1228.96875 C 1757.953125 1238.457031 1750.277344 1246.152344 1740.808594 1246.152344 Z M 1740.808594 1246.152344 " fill-opacity="1" fill-rule="nonzero"/></g><g fill="#000000" fill-opacity="1"><g transform="translate(1680.553832, 1454.954811)"><g><path d="M 37.875 0.703125 C 36.082031 0.703125 33.921875 0.632812 31.390625 0.5 C 28.859375 0.363281 26.304688 0.242188 23.734375 0.140625 C 21.171875 0.046875 19.054688 0 17.390625 0 C 16.054688 0 14.707031 0.015625 13.34375 0.046875 C 11.976562 0.078125 10.5625 0.144531 9.09375 0.25 C 7.625 0.351562 6.054688 0.40625 4.390625 0.40625 C 3.796875 0.40625 3.265625 0.285156 2.796875 0.046875 C 2.328125 -0.179688 2.09375 -0.53125 2.09375 -1 C 2.09375 -1.601562 2.304688 -2.035156 2.734375 -2.296875 C 3.171875 -2.566406 3.828125 -2.769531 4.703125 -2.90625 C 7.234375 -3.4375 8.960938 -4.164062 9.890625 -5.09375 C 10.828125 -6.03125 11.296875 -7.597656 11.296875 -9.796875 L 11.296875 -54.96875 C 11.296875 -57.238281 10.84375 -58.835938 9.9375 -59.765625 C 9.039062 -60.703125 7.296875 -61.4375 4.703125 -61.96875 C 3.828125 -62.101562 3.171875 -62.320312 2.734375 -62.625 C 2.304688 -62.925781 2.09375 -63.375 2.09375 -63.96875 C 2.09375 -64.4375 2.328125 -64.785156 2.796875 -65.015625 C 3.265625 -65.253906 3.796875 -65.375 4.390625 -65.375 C 5.992188 -65.375 7.523438 -65.351562 8.984375 -65.3125 C 10.453125 -65.28125 11.90625 -65.210938 13.34375 -65.109375 C 14.78125 -65.015625 16.226562 -64.96875 17.6875 -64.96875 C 18.6875 -64.96875 20.035156 -65.015625 21.734375 -65.109375 C 23.429688 -65.210938 25.265625 -65.3125 27.234375 -65.40625 C 29.203125 -65.507812 31.050781 -65.613281 32.78125 -65.71875 C 34.519531 -65.820312 35.921875 -65.875 36.984375 -65.875 C 42.578125 -65.875 47.601562 -65.070312 52.0625 -63.46875 C 56.53125 -61.875 60.347656 -59.640625 63.515625 -56.765625 C 66.679688 -53.898438 69.097656 -50.503906 70.765625 -46.578125 C 72.429688 -42.648438 73.265625 -38.382812 73.265625 -33.78125 C 73.265625 -29.1875 72.429688 -24.820312 70.765625 -20.6875 C 69.097656 -16.5625 66.710938 -12.894531 63.609375 -9.6875 C 60.515625 -6.488281 56.785156 -3.957031 52.421875 -2.09375 C 48.054688 -0.226562 43.207031 0.703125 37.875 0.703125 Z M 36.390625 -3.890625 C 41.179688 -3.890625 45.257812 -5.039062 48.625 -7.34375 C 51.988281 -9.644531 54.535156 -12.878906 56.265625 -17.046875 C 58.003906 -21.210938 58.875 -26.023438 58.875 -31.484375 C 58.875 -36.015625 58.289062 -40.128906 57.125 -43.828125 C 55.957031 -47.523438 54.320312 -50.65625 52.21875 -53.21875 C 50.125 -55.789062 47.625 -57.773438 44.71875 -59.171875 C 41.820312 -60.566406 38.675781 -61.265625 35.28125 -61.265625 C 32.882812 -61.265625 30.867188 -61.195312 29.234375 -61.0625 C 27.597656 -60.9375 26.363281 -60.554688 25.53125 -59.921875 C 24.695312 -59.285156 24.28125 -58.234375 24.28125 -56.765625 L 24.28125 -12.796875 C 24.28125 -10.460938 24.796875 -8.644531 25.828125 -7.34375 C 26.867188 -6.039062 28.304688 -5.140625 30.140625 -4.640625 C 31.972656 -4.140625 34.054688 -3.890625 36.390625 -3.890625 Z M 36.390625 -3.890625 "/></g></g></g><g fill="#000000" fill-opacity="1"><g transform="translate(1777.91327, 1454.954811)"><g><path d="M 64.171875 2.09375 C 61.304688 2.09375 58.804688 1.773438 56.671875 1.140625 C 54.535156 0.515625 52.703125 -0.394531 51.171875 -1.59375 C 49.640625 -2.789062 48.242188 -4.191406 46.984375 -5.796875 C 45.515625 -7.796875 44.078125 -9.742188 42.671875 -11.640625 C 41.273438 -13.546875 39.859375 -15.644531 38.421875 -17.9375 C 36.992188 -20.238281 35.414062 -22.988281 33.6875 -26.1875 C 32.820312 -27.71875 31.722656 -28.851562 30.390625 -29.59375 C 29.523438 -30.050781 28.640625 -30.378906 27.734375 -30.578125 C 26.835938 -30.785156 26.085938 -30.890625 25.484375 -30.890625 C 25.085938 -30.953125 24.785156 -30.78125 24.578125 -30.375 C 24.378906 -29.976562 24.28125 -29.484375 24.28125 -28.890625 L 24.28125 -10.296875 C 24.28125 -8.234375 24.832031 -6.632812 25.9375 -5.5 C 27.039062 -4.363281 28.921875 -3.5 31.578125 -2.90625 C 32.453125 -2.769531 33.085938 -2.550781 33.484375 -2.25 C 33.878906 -1.945312 34.078125 -1.53125 34.078125 -1 C 34.078125 -0.53125 33.894531 -0.195312 33.53125 0 C 33.164062 0.195312 32.617188 0.296875 31.890625 0.296875 C 30.359375 0.296875 28.789062 0.242188 27.1875 0.140625 C 25.582031 0.046875 24.03125 -0.03125 22.53125 -0.09375 C 21.039062 -0.164062 19.628906 -0.203125 18.296875 -0.203125 C 16.828125 -0.203125 15.304688 -0.164062 13.734375 -0.09375 C 12.171875 -0.03125 10.585938 0.0664062 8.984375 0.203125 C 7.390625 0.335938 5.796875 0.40625 4.203125 0.40625 C 3.597656 0.40625 3.0625 0.285156 2.59375 0.046875 C 2.132812 -0.179688 1.90625 -0.5 1.90625 -0.90625 C 1.90625 -1.90625 2.734375 -2.570312 4.390625 -2.90625 C 6.929688 -3.4375 8.734375 -4.164062 9.796875 -5.09375 C 10.859375 -6.03125 11.390625 -7.597656 11.390625 -9.796875 L 11.390625 -53.96875 C 11.390625 -55.90625 11.238281 -57.390625 10.9375 -58.421875 C 10.644531 -59.453125 10.0625 -60.234375 9.1875 -60.765625 C 8.320312 -61.304688 7.023438 -61.707031 5.296875 -61.96875 C 4.359375 -62.101562 3.691406 -62.367188 3.296875 -62.765625 C 2.898438 -63.171875 2.703125 -63.570312 2.703125 -63.96875 C 2.703125 -64.4375 2.914062 -64.785156 3.34375 -65.015625 C 3.78125 -65.253906 4.363281 -65.375 5.09375 -65.375 C 7.09375 -65.375 8.691406 -65.335938 9.890625 -65.265625 C 11.085938 -65.203125 12.238281 -65.117188 13.34375 -65.015625 C 14.445312 -64.921875 15.765625 -64.875 17.296875 -64.875 C 18.753906 -64.875 20.050781 -64.9375 21.1875 -65.0625 C 22.320312 -65.195312 23.585938 -65.332031 24.984375 -65.46875 C 26.390625 -65.601562 28.191406 -65.671875 30.390625 -65.671875 C 38.046875 -65.671875 43.90625 -64.335938 47.96875 -61.671875 C 52.039062 -59.003906 54.078125 -54.941406 54.078125 -49.484375 C 54.078125 -46.484375 53.441406 -43.929688 52.171875 -41.828125 C 50.910156 -39.734375 49.328125 -38.019531 47.421875 -36.6875 C 45.523438 -35.351562 43.578125 -34.316406 41.578125 -33.578125 C 41.316406 -33.515625 41.203125 -33.347656 41.234375 -33.078125 C 41.265625 -32.816406 41.378906 -32.585938 41.578125 -32.390625 C 43.578125 -29.316406 45.523438 -26.394531 47.421875 -23.625 C 49.328125 -20.863281 51.328125 -18.25 53.421875 -15.78125 C 55.523438 -13.320312 57.804688 -10.960938 60.265625 -8.703125 C 62.335938 -6.765625 64.457031 -5.613281 66.625 -5.25 C 68.789062 -4.882812 71.035156 -4.703125 73.359375 -4.703125 C 74.359375 -4.703125 74.859375 -4.203125 74.859375 -3.203125 C 74.859375 -1.867188 74.359375 -0.816406 73.359375 -0.046875 C 72.359375 0.710938 71.039062 1.257812 69.40625 1.59375 C 67.78125 1.925781 66.035156 2.09375 64.171875 2.09375 Z M 28.59375 -33.78125 C 31.320312 -33.78125 33.601562 -34.394531 35.4375 -35.625 C 37.269531 -36.863281 38.664062 -38.515625 39.625 -40.578125 C 40.59375 -42.640625 41.078125 -44.941406 41.078125 -47.484375 C 41.078125 -50.472656 40.707031 -53.015625 39.96875 -55.109375 C 39.238281 -57.210938 37.988281 -58.847656 36.21875 -60.015625 C 34.457031 -61.179688 32.046875 -61.765625 28.984375 -61.765625 C 27.253906 -61.765625 26.070312 -61.148438 25.4375 -59.921875 C 24.800781 -58.691406 24.453125 -56.207031 24.390625 -52.46875 C 24.316406 -50.9375 24.28125 -48.921875 24.28125 -46.421875 C 24.28125 -43.929688 24.28125 -40.953125 24.28125 -37.484375 C 24.28125 -36.015625 24.664062 -35.03125 25.4375 -34.53125 C 26.207031 -34.03125 27.257812 -33.78125 28.59375 -33.78125 Z M 28.59375 -33.78125 "/></g></g></g><g fill="#000000" fill-opacity="1"><g transform="translate(1873.473475, 1454.954811)"><g><path d="M 4.890625 0.5 C 4.160156 0.5 3.578125 0.363281 3.140625 0.09375 C 2.710938 -0.164062 2.5 -0.5 2.5 -0.90625 C 2.5 -1.769531 3.363281 -2.398438 5.09375 -2.796875 C 7.5 -3.398438 9.21875 -4.148438 10.25 -5.046875 C 11.28125 -5.941406 11.796875 -7.492188 11.796875 -9.703125 L 11.796875 -54.96875 C 11.796875 -57.238281 11.34375 -58.835938 10.4375 -59.765625 C 9.539062 -60.703125 7.859375 -61.4375 5.390625 -61.96875 C 4.460938 -62.164062 3.796875 -62.445312 3.390625 -62.8125 C 2.992188 -63.1875 2.796875 -63.570312 2.796875 -63.96875 C 2.796875 -64.4375 3.007812 -64.785156 3.4375 -65.015625 C 3.875 -65.253906 4.460938 -65.375 5.203125 -65.375 C 7.128906 -65.375 8.972656 -65.335938 10.734375 -65.265625 C 12.503906 -65.203125 14.222656 -65.132812 15.890625 -65.0625 C 17.554688 -65 19.289062 -64.96875 21.09375 -64.96875 C 24.15625 -64.96875 27.398438 -65 30.828125 -65.0625 C 34.265625 -65.132812 37.347656 -65.171875 40.078125 -65.171875 C 42.273438 -65.234375 44.085938 -65.332031 45.515625 -65.46875 C 46.953125 -65.601562 47.804688 -65.671875 48.078125 -65.671875 C 48.546875 -65.671875 49.03125 -65.566406 49.53125 -65.359375 C 50.03125 -65.160156 50.3125 -64.765625 50.375 -64.171875 C 50.644531 -61.972656 50.976562 -59.804688 51.375 -57.671875 C 51.769531 -55.535156 51.96875 -53.671875 51.96875 -52.078125 C 51.96875 -51.472656 51.816406 -51.019531 51.515625 -50.71875 C 51.222656 -50.425781 50.910156 -50.28125 50.578125 -50.28125 C 50.242188 -50.28125 49.941406 -50.394531 49.671875 -50.625 C 49.410156 -50.851562 49.179688 -51.203125 48.984375 -51.671875 C 48.441406 -53.203125 47.9375 -54.535156 47.46875 -55.671875 C 47.007812 -56.804688 46.476562 -57.671875 45.875 -58.265625 C 45.007812 -59.203125 44.007812 -59.9375 42.875 -60.46875 C 41.75 -61 40.382812 -61.265625 38.78125 -61.265625 L 29.484375 -61.265625 C 28.285156 -61.265625 27.1875 -60.914062 26.1875 -60.21875 C 25.1875 -59.519531 24.6875 -58.535156 24.6875 -57.265625 L 24.6875 -37.6875 C 24.6875 -36.945312 24.898438 -36.378906 25.328125 -35.984375 C 25.765625 -35.585938 26.285156 -35.390625 26.890625 -35.390625 L 36.078125 -35.390625 C 37.878906 -35.390625 39.160156 -35.882812 39.921875 -36.875 C 40.691406 -37.875 41.34375 -39.242188 41.875 -40.984375 C 42.34375 -42.316406 42.976562 -42.984375 43.78125 -42.984375 C 44.113281 -42.984375 44.410156 -42.796875 44.671875 -42.421875 C 44.941406 -42.054688 45.078125 -41.578125 45.078125 -40.984375 C 45.015625 -40.316406 44.945312 -39.515625 44.875 -38.578125 C 44.8125 -37.648438 44.757812 -36.71875 44.71875 -35.78125 C 44.6875 -34.851562 44.671875 -34.019531 44.671875 -33.28125 C 44.671875 -32.476562 44.6875 -31.578125 44.71875 -30.578125 C 44.757812 -29.585938 44.796875 -28.609375 44.828125 -27.640625 C 44.859375 -26.671875 44.910156 -25.851562 44.984375 -25.1875 C 45.046875 -24.457031 44.992188 -23.890625 44.828125 -23.484375 C 44.660156 -23.085938 44.378906 -22.890625 43.984375 -22.890625 C 42.910156 -22.890625 42.144531 -23.820312 41.6875 -25.6875 C 41.144531 -27.550781 40.507812 -28.945312 39.78125 -29.875 C 39.050781 -30.8125 38.050781 -31.28125 36.78125 -31.28125 L 27.390625 -31.28125 C 26.523438 -31.28125 25.859375 -31.113281 25.390625 -30.78125 C 24.921875 -30.445312 24.6875 -29.816406 24.6875 -28.890625 L 24.6875 -9.890625 C 24.6875 -7.691406 25.148438 -6.160156 26.078125 -5.296875 C 27.015625 -4.429688 28.453125 -4 30.390625 -4 L 38.578125 -4 C 40.242188 -4 41.757812 -4.164062 43.125 -4.5 C 44.488281 -4.832031 45.671875 -5.363281 46.671875 -6.09375 C 47.804688 -6.894531 48.820312 -7.976562 49.71875 -9.34375 C 50.625 -10.707031 51.507812 -12.222656 52.375 -13.890625 C 52.644531 -14.421875 52.910156 -14.769531 53.171875 -14.9375 C 53.441406 -15.101562 53.773438 -15.1875 54.171875 -15.1875 C 54.503906 -15.125 54.753906 -14.925781 54.921875 -14.59375 C 55.085938 -14.257812 55.171875 -13.894531 55.171875 -13.5 C 55.171875 -12.5625 55.003906 -11.359375 54.671875 -9.890625 C 54.335938 -8.429688 53.921875 -6.914062 53.421875 -5.34375 C 52.921875 -3.78125 52.472656 -2.332031 52.078125 -1 C 51.878906 -0.53125 51.613281 -0.179688 51.28125 0.046875 C 50.945312 0.285156 50.546875 0.40625 50.078125 0.40625 C 48.472656 0.40625 46.421875 0.382812 43.921875 0.34375 C 41.429688 0.3125 38.71875 0.257812 35.78125 0.1875 C 32.851562 0.125 29.851562 0.078125 26.78125 0.046875 C 23.71875 0.015625 20.785156 0 17.984375 0 C 16.585938 0 15.171875 0.03125 13.734375 0.09375 C 12.304688 0.164062 10.859375 0.25 9.390625 0.34375 C 7.929688 0.445312 6.429688 0.5 4.890625 0.5 Z M 4.890625 0.5 "/></g></g></g><g fill="#000000" fill-opacity="1"><g transform="translate(1951.741029, 1454.954811)"><g><path d="M 2.40625 0.5 C 1.601562 0.5 0.929688 0.378906 0.390625 0.140625 C -0.140625 -0.0859375 -0.40625 -0.46875 -0.40625 -1 C -0.40625 -1.601562 -0.15625 -2.070312 0.34375 -2.40625 C 0.84375 -2.738281 1.492188 -3.035156 2.296875 -3.296875 C 4.234375 -3.828125 5.914062 -4.640625 7.34375 -5.734375 C 8.78125 -6.835938 9.929688 -8.359375 10.796875 -10.296875 C 12.460938 -14.222656 14.0625 -18.003906 15.59375 -21.640625 C 17.125 -25.273438 18.585938 -28.890625 19.984375 -32.484375 C 21.390625 -36.078125 22.804688 -39.738281 24.234375 -43.46875 C 25.671875 -47.207031 27.125 -51.144531 28.59375 -55.28125 C 29.320312 -57.34375 29.816406 -58.9375 30.078125 -60.0625 C 30.347656 -61.195312 30.582031 -62.035156 30.78125 -62.578125 C 31.78125 -62.835938 32.710938 -63.097656 33.578125 -63.359375 C 34.453125 -63.628906 35.421875 -63.96875 36.484375 -64.375 C 37.410156 -64.832031 38.207031 -65.425781 38.875 -66.15625 C 39.539062 -66.894531 40.039062 -67.46875 40.375 -67.875 C 40.582031 -68 40.785156 -68.078125 40.984375 -68.109375 C 41.179688 -68.148438 41.378906 -68.003906 41.578125 -67.671875 C 41.773438 -67.265625 41.941406 -66.863281 42.078125 -66.46875 C 42.210938 -66.070312 42.347656 -65.640625 42.484375 -65.171875 C 43.941406 -60.441406 45.453125 -55.660156 47.015625 -50.828125 C 48.585938 -45.992188 50.140625 -41.226562 51.671875 -36.53125 C 53.203125 -31.832031 54.679688 -27.332031 56.109375 -23.03125 C 57.546875 -18.738281 58.867188 -14.789062 60.078125 -11.1875 C 60.671875 -9.394531 61.414062 -7.960938 62.3125 -6.890625 C 63.21875 -5.828125 64.21875 -5.007812 65.3125 -4.4375 C 66.414062 -3.875 67.632812 -3.425781 68.96875 -3.09375 C 69.832031 -2.894531 70.5 -2.628906 70.96875 -2.296875 C 71.4375 -1.960938 71.671875 -1.5 71.671875 -0.90625 C 71.671875 -0.5 71.453125 -0.195312 71.015625 0 C 70.578125 0.195312 70.03125 0.296875 69.375 0.296875 C 68.164062 0.296875 66.644531 0.257812 64.8125 0.1875 C 62.988281 0.125 61.109375 0.046875 59.171875 -0.046875 C 57.242188 -0.148438 55.507812 -0.203125 53.96875 -0.203125 C 52.632812 -0.203125 51.148438 -0.164062 49.515625 -0.09375 C 47.890625 -0.03125 46.257812 0.03125 44.625 0.09375 C 43 0.164062 41.617188 0.203125 40.484375 0.203125 C 39.816406 0.203125 39.234375 0.0859375 38.734375 -0.140625 C 38.234375 -0.378906 37.984375 -0.734375 37.984375 -1.203125 C 37.984375 -1.734375 38.25 -2.179688 38.78125 -2.546875 C 39.3125 -2.910156 39.945312 -3.160156 40.6875 -3.296875 C 43.082031 -3.691406 44.8125 -4.304688 45.875 -5.140625 C 46.945312 -5.972656 47.347656 -7.191406 47.078125 -8.796875 C 46.878906 -9.929688 46.578125 -11.28125 46.171875 -12.84375 C 45.773438 -14.40625 45.359375 -16.035156 44.921875 -17.734375 C 44.492188 -19.441406 44.046875 -20.992188 43.578125 -22.390625 C 43.441406 -22.921875 43.238281 -23.300781 42.96875 -23.53125 C 42.707031 -23.769531 42.210938 -23.890625 41.484375 -23.890625 L 23.484375 -23.890625 C 23.023438 -23.890625 22.660156 -23.738281 22.390625 -23.4375 C 22.117188 -23.132812 21.921875 -22.6875 21.796875 -22.09375 C 21.523438 -21.226562 21.207031 -20.242188 20.84375 -19.140625 C 20.476562 -18.035156 20.109375 -16.898438 19.734375 -15.734375 C 19.367188 -14.578125 19.035156 -13.5 18.734375 -12.5 C 18.441406 -11.5 18.226562 -10.628906 18.09375 -9.890625 C 17.757812 -8.097656 18.070312 -6.679688 19.03125 -5.640625 C 20 -4.609375 21.6875 -3.796875 24.09375 -3.203125 C 25.882812 -2.734375 26.78125 -2.03125 26.78125 -1.09375 C 26.78125 -0.695312 26.5625 -0.378906 26.125 -0.140625 C 25.695312 0.0859375 25.082031 0.203125 24.28125 0.203125 C 22.75 0.203125 21.148438 0.148438 19.484375 0.046875 C 17.816406 -0.046875 15.988281 -0.09375 14 -0.09375 C 12 -0.09375 10.046875 0.00390625 8.140625 0.203125 C 6.242188 0.398438 4.332031 0.5 2.40625 0.5 Z M 26.1875 -28.484375 L 40.078125 -28.484375 C 41.015625 -28.484375 41.484375 -28.6875 41.484375 -29.09375 C 41.484375 -29.289062 41.460938 -29.453125 41.421875 -29.578125 C 41.390625 -29.710938 41.34375 -29.914062 41.28125 -30.1875 L 34.28125 -53.28125 C 34.019531 -54.207031 33.785156 -54.671875 33.578125 -54.671875 C 33.453125 -54.671875 33.222656 -54.238281 32.890625 -53.375 L 24.484375 -30.1875 C 24.347656 -29.851562 24.28125 -29.585938 24.28125 -29.390625 C 24.28125 -29.054688 24.460938 -28.820312 24.828125 -28.6875 C 25.203125 -28.550781 25.65625 -28.484375 26.1875 -28.484375 Z M 26.1875 -28.484375 "/></g></g></g><g fill="#000000" fill-opacity="1"><g transform="translate(2044.002649, 1454.954811)"><g><path d="M 4.5 0.40625 C 3.695312 0.40625 3.078125 0.285156 2.640625 0.046875 C 2.210938 -0.179688 2 -0.5 2 -0.90625 C 2 -1.4375 2.28125 -1.816406 2.84375 -2.046875 C 3.414062 -2.285156 4.097656 -2.503906 4.890625 -2.703125 C 6.492188 -3.160156 7.859375 -4.054688 8.984375 -5.390625 C 10.117188 -6.722656 10.820312 -8.457031 11.09375 -10.59375 C 11.625 -14.65625 12.140625 -19.082031 12.640625 -23.875 C 13.140625 -28.675781 13.601562 -33.507812 14.03125 -38.375 C 14.46875 -43.238281 14.820312 -47.804688 15.09375 -52.078125 C 15.09375 -52.546875 15.09375 -53.078125 15.09375 -53.671875 C 15.09375 -54.273438 15.09375 -54.875 15.09375 -55.46875 C 15.03125 -56.46875 14.847656 -57.285156 14.546875 -57.921875 C 14.242188 -58.554688 13.726562 -59.140625 13 -59.671875 C 12.0625 -60.335938 11.09375 -60.851562 10.09375 -61.21875 C 9.09375 -61.582031 7.960938 -61.898438 6.703125 -62.171875 C 5.960938 -62.304688 5.375 -62.554688 4.9375 -62.921875 C 4.507812 -63.285156 4.296875 -63.734375 4.296875 -64.265625 C 4.296875 -64.796875 4.5625 -65.160156 5.09375 -65.359375 C 5.625 -65.566406 6.328125 -65.671875 7.203125 -65.671875 C 8.066406 -65.671875 9.226562 -65.632812 10.6875 -65.5625 C 12.15625 -65.5 13.738281 -65.414062 15.4375 -65.3125 C 17.132812 -65.21875 18.816406 -65.132812 20.484375 -65.0625 C 22.148438 -65 23.617188 -64.96875 24.890625 -64.96875 C 25.421875 -64.96875 25.882812 -64.800781 26.28125 -64.46875 C 26.6875 -64.132812 26.957031 -63.734375 27.09375 -63.265625 C 27.488281 -62.003906 27.882812 -60.769531 28.28125 -59.5625 C 28.6875 -58.363281 29.125 -57.101562 29.59375 -55.78125 L 44.578125 -19.09375 C 44.773438 -18.757812 45.039062 -18.570312 45.375 -18.53125 C 45.707031 -18.5 45.941406 -18.648438 46.078125 -18.984375 L 62.171875 -54.78125 C 62.640625 -56.707031 63.019531 -58.40625 63.3125 -59.875 C 63.613281 -61.34375 63.898438 -62.507812 64.171875 -63.375 C 64.367188 -64.238281 64.800781 -64.671875 65.46875 -64.671875 L 69.5625 -64.671875 C 72.09375 -64.804688 74.757812 -65.003906 77.5625 -65.265625 C 80.363281 -65.535156 82.53125 -65.671875 84.0625 -65.671875 C 84.59375 -65.671875 85.109375 -65.585938 85.609375 -65.421875 C 86.109375 -65.253906 86.359375 -64.90625 86.359375 -64.375 C 86.359375 -63.832031 86.15625 -63.425781 85.75 -63.15625 C 85.351562 -62.894531 84.753906 -62.597656 83.953125 -62.265625 C 83.421875 -62.140625 82.789062 -61.925781 82.0625 -61.625 C 81.332031 -61.320312 80.695312 -61.035156 80.15625 -60.765625 C 78.757812 -60.171875 77.710938 -59.40625 77.015625 -58.46875 C 76.316406 -57.539062 76 -56.207031 76.0625 -54.46875 C 76.132812 -49.738281 76.269531 -45.488281 76.46875 -41.71875 C 76.664062 -37.957031 76.847656 -34.425781 77.015625 -31.125 C 77.179688 -27.832031 77.394531 -24.46875 77.65625 -21.03125 C 77.925781 -17.601562 78.160156 -13.828125 78.359375 -9.703125 C 78.492188 -7.828125 79.210938 -6.359375 80.515625 -5.296875 C 81.816406 -4.234375 83.566406 -3.4375 85.765625 -2.90625 C 86.554688 -2.695312 87.203125 -2.457031 87.703125 -2.1875 C 88.203125 -1.925781 88.453125 -1.53125 88.453125 -1 C 88.453125 -0.53125 88.234375 -0.195312 87.796875 0 C 87.367188 0.195312 86.789062 0.296875 86.0625 0.296875 C 84.53125 0.296875 82.929688 0.257812 81.265625 0.1875 C 79.597656 0.125 77.976562 0.0625 76.40625 0 C 74.84375 -0.0625 73.363281 -0.09375 71.96875 -0.09375 C 70.632812 -0.09375 69.265625 -0.0625 67.859375 0 C 66.460938 0.0625 65.03125 0.144531 63.5625 0.25 C 62.101562 0.351562 60.570312 0.40625 58.96875 0.40625 C 58.300781 0.40625 57.71875 0.285156 57.21875 0.046875 C 56.71875 -0.179688 56.46875 -0.5 56.46875 -0.90625 C 56.46875 -1.4375 56.71875 -1.867188 57.21875 -2.203125 C 57.71875 -2.535156 58.367188 -2.769531 59.171875 -2.90625 C 61.441406 -3.363281 63.023438 -4.054688 63.921875 -4.984375 C 64.816406 -5.921875 65.195312 -7.492188 65.0625 -9.703125 C 65 -14.023438 64.898438 -18.1875 64.765625 -22.1875 C 64.628906 -26.1875 64.492188 -30.148438 64.359375 -34.078125 C 64.234375 -38.015625 64.070312 -41.984375 63.875 -45.984375 C 63.800781 -46.515625 63.648438 -46.757812 63.421875 -46.71875 C 63.191406 -46.6875 62.941406 -46.40625 62.671875 -45.875 L 42.28125 0.09375 C 42.007812 0.832031 41.570312 1.148438 40.96875 1.046875 C 40.375 0.953125 39.976562 0.632812 39.78125 0.09375 C 36.71875 -7.632812 33.503906 -15.28125 30.140625 -22.84375 C 26.773438 -30.40625 23.457031 -38.082031 20.1875 -45.875 C 19.988281 -46.40625 19.707031 -46.601562 19.34375 -46.46875 C 18.976562 -46.34375 18.757812 -45.976562 18.6875 -45.375 C 18.351562 -41.644531 18.050781 -37.796875 17.78125 -33.828125 C 17.519531 -29.867188 17.351562 -25.921875 17.28125 -21.984375 C 17.21875 -18.054688 17.1875 -14.160156 17.1875 -10.296875 C 17.1875 -8.492188 17.769531 -6.957031 18.9375 -5.6875 C 20.101562 -4.425781 21.882812 -3.5 24.28125 -2.90625 C 25.082031 -2.769531 25.765625 -2.550781 26.328125 -2.25 C 26.898438 -1.945312 27.1875 -1.53125 27.1875 -1 C 27.1875 -0.53125 26.921875 -0.195312 26.390625 0 C 25.859375 0.195312 25.257812 0.296875 24.59375 0.296875 C 22.789062 0.296875 21.421875 0.257812 20.484375 0.1875 C 19.554688 0.125 18.691406 0.0625 17.890625 0 C 17.085938 -0.0625 16.019531 -0.09375 14.6875 -0.09375 C 13.289062 -0.09375 11.972656 -0.0625 10.734375 0 C 9.503906 0.0625 8.359375 0.144531 7.296875 0.25 C 6.234375 0.351562 5.300781 0.40625 4.5 0.40625 Z M 4.5 0.40625 "/></g></g></g><g fill="#000000" fill-opacity="1"><g transform="translate(2156.355751, 1454.954811)"><g/></g></g><g fill="#000000" fill-opacity="1"><g transform="translate(2200.037978, 1454.954811)"><g><path d="M 37.875 0.703125 C 36.082031 0.703125 33.921875 0.632812 31.390625 0.5 C 28.859375 0.363281 26.304688 0.242188 23.734375 0.140625 C 21.171875 0.046875 19.054688 0 17.390625 0 C 16.054688 0 14.707031 0.015625 13.34375 0.046875 C 11.976562 0.078125 10.5625 0.144531 9.09375 0.25 C 7.625 0.351562 6.054688 0.40625 4.390625 0.40625 C 3.796875 0.40625 3.265625 0.285156 2.796875 0.046875 C 2.328125 -0.179688 2.09375 -0.53125 2.09375 -1 C 2.09375 -1.601562 2.304688 -2.035156 2.734375 -2.296875 C 3.171875 -2.566406 3.828125 -2.769531 4.703125 -2.90625 C 7.234375 -3.4375 8.960938 -4.164062 9.890625 -5.09375 C 10.828125 -6.03125 11.296875 -7.597656 11.296875 -9.796875 L 11.296875 -54.96875 C 11.296875 -57.238281 10.84375 -58.835938 9.9375 -59.765625 C 9.039062 -60.703125 7.296875 -61.4375 4.703125 -61.96875 C 3.828125 -62.101562 3.171875 -62.320312 2.734375 -62.625 C 2.304688 -62.925781 2.09375 -63.375 2.09375 -63.96875 C 2.09375 -64.4375 2.328125 -64.785156 2.796875 -65.015625 C 3.265625 -65.253906 3.796875 -65.375 4.390625 -65.375 C 5.992188 -65.375 7.523438 -65.351562 8.984375 -65.3125 C 10.453125 -65.28125 11.90625 -65.210938 13.34375 -65.109375 C 14.78125 -65.015625 16.226562 -64.96875 17.6875 -64.96875 C 18.6875 -64.96875 20.035156 -65.015625 21.734375 -65.109375 C 23.429688 -65.210938 25.265625 -65.3125 27.234375 -65.40625 C 29.203125 -65.507812 31.050781 -65.613281 32.78125 -65.71875 C 34.519531 -65.820312 35.921875 -65.875 36.984375 -65.875 C 42.578125 -65.875 47.601562 -65.070312 52.0625 -63.46875 C 56.53125 -61.875 60.347656 -59.640625 63.515625 -56.765625 C 66.679688 -53.898438 69.097656 -50.503906 70.765625 -46.578125 C 72.429688 -42.648438 73.265625 -38.382812 73.265625 -33.78125 C 73.265625 -29.1875 72.429688 -24.820312 70.765625 -20.6875 C 69.097656 -16.5625 66.710938 -12.894531 63.609375 -9.6875 C 60.515625 -6.488281 56.785156 -3.957031 52.421875 -2.09375 C 48.054688 -0.226562 43.207031 0.703125 37.875 0.703125 Z M 36.390625 -3.890625 C 41.179688 -3.890625 45.257812 -5.039062 48.625 -7.34375 C 51.988281 -9.644531 54.535156 -12.878906 56.265625 -17.046875 C 58.003906 -21.210938 58.875 -26.023438 58.875 -31.484375 C 58.875 -36.015625 58.289062 -40.128906 57.125 -43.828125 C 55.957031 -47.523438 54.320312 -50.65625 52.21875 -53.21875 C 50.125 -55.789062 47.625 -57.773438 44.71875 -59.171875 C 41.820312 -60.566406 38.675781 -61.265625 35.28125 -61.265625 C 32.882812 -61.265625 30.867188 -61.195312 29.234375 -61.0625 C 27.597656 -60.9375 26.363281 -60.554688 25.53125 -59.921875 C 24.695312 -59.285156 24.28125 -58.234375 24.28125 -56.765625 L 24.28125 -12.796875 C 24.28125 -10.460938 24.796875 -8.644531 25.828125 -7.34375 C 26.867188 -6.039062 28.304688 -5.140625 30.140625 -4.640625 C 31.972656 -4.140625 34.054688 -3.890625 36.390625 -3.890625 Z M 36.390625 -3.890625 "/></g></g></g><g fill="#000000" fill-opacity="1"><g transform="translate(2297.397416, 1454.954811)"><g><path d="M 2.40625 0.5 C 1.601562 0.5 0.929688 0.378906 0.390625 0.140625 C -0.140625 -0.0859375 -0.40625 -0.46875 -0.40625 -1 C -0.40625 -1.601562 -0.15625 -2.070312 0.34375 -2.40625 C 0.84375 -2.738281 1.492188 -3.035156 2.296875 -3.296875 C 4.234375 -3.828125 5.914062 -4.640625 7.34375 -5.734375 C 8.78125 -6.835938 9.929688 -8.359375 10.796875 -10.296875 C 12.460938 -14.222656 14.0625 -18.003906 15.59375 -21.640625 C 17.125 -25.273438 18.585938 -28.890625 19.984375 -32.484375 C 21.390625 -36.078125 22.804688 -39.738281 24.234375 -43.46875 C 25.671875 -47.207031 27.125 -51.144531 28.59375 -55.28125 C 29.320312 -57.34375 29.816406 -58.9375 30.078125 -60.0625 C 30.347656 -61.195312 30.582031 -62.035156 30.78125 -62.578125 C 31.78125 -62.835938 32.710938 -63.097656 33.578125 -63.359375 C 34.453125 -63.628906 35.421875 -63.96875 36.484375 -64.375 C 37.410156 -64.832031 38.207031 -65.425781 38.875 -66.15625 C 39.539062 -66.894531 40.039062 -67.46875 40.375 -67.875 C 40.582031 -68 40.785156 -68.078125 40.984375 -68.109375 C 41.179688 -68.148438 41.378906 -68.003906 41.578125 -67.671875 C 41.773438 -67.265625 41.941406 -66.863281 42.078125 -66.46875 C 42.210938 -66.070312 42.347656 -65.640625 42.484375 -65.171875 C 43.941406 -60.441406 45.453125 -55.660156 47.015625 -50.828125 C 48.585938 -45.992188 50.140625 -41.226562 51.671875 -36.53125 C 53.203125 -31.832031 54.679688 -27.332031 56.109375 -23.03125 C 57.546875 -18.738281 58.867188 -14.789062 60.078125 -11.1875 C 60.671875 -9.394531 61.414062 -7.960938 62.3125 -6.890625 C 63.21875 -5.828125 64.21875 -5.007812 65.3125 -4.4375 C 66.414062 -3.875 67.632812 -3.425781 68.96875 -3.09375 C 69.832031 -2.894531 70.5 -2.628906 70.96875 -2.296875 C 71.4375 -1.960938 71.671875 -1.5 71.671875 -0.90625 C 71.671875 -0.5 71.453125 -0.195312 71.015625 0 C 70.578125 0.195312 70.03125 0.296875 69.375 0.296875 C 68.164062 0.296875 66.644531 0.257812 64.8125 0.1875 C 62.988281 0.125 61.109375 0.046875 59.171875 -0.046875 C 57.242188 -0.148438 55.507812 -0.203125 53.96875 -0.203125 C 52.632812 -0.203125 51.148438 -0.164062 49.515625 -0.09375 C 47.890625 -0.03125 46.257812 0.03125 44.625 0.09375 C 43 0.164062 41.617188 0.203125 40.484375 0.203125 C 39.816406 0.203125 39.234375 0.0859375 38.734375 -0.140625 C 38.234375 -0.378906 37.984375 -0.734375 37.984375 -1.203125 C 37.984375 -1.734375 38.25 -2.179688 38.78125 -2.546875 C 39.3125 -2.910156 39.945312 -3.160156 40.6875 -3.296875 C 43.082031 -3.691406 44.8125 -4.304688 45.875 -5.140625 C 46.945312 -5.972656 47.347656 -7.191406 47.078125 -8.796875 C 46.878906 -9.929688 46.578125 -11.28125 46.171875 -12.84375 C 45.773438 -14.40625 45.359375 -16.035156 44.921875 -17.734375 C 44.492188 -19.441406 44.046875 -20.992188 43.578125 -22.390625 C 43.441406 -22.921875 43.238281 -23.300781 42.96875 -23.53125 C 42.707031 -23.769531 42.210938 -23.890625 41.484375 -23.890625 L 23.484375 -23.890625 C 23.023438 -23.890625 22.660156 -23.738281 22.390625 -23.4375 C 22.117188 -23.132812 21.921875 -22.6875 21.796875 -22.09375 C 21.523438 -21.226562 21.207031 -20.242188 20.84375 -19.140625 C 20.476562 -18.035156 20.109375 -16.898438 19.734375 -15.734375 C 19.367188 -14.578125 19.035156 -13.5 18.734375 -12.5 C 18.441406 -11.5 18.226562 -10.628906 18.09375 -9.890625 C 17.757812 -8.097656 18.070312 -6.679688 19.03125 -5.640625 C 20 -4.609375 21.6875 -3.796875 24.09375 -3.203125 C 25.882812 -2.734375 26.78125 -2.03125 26.78125 -1.09375 C 26.78125 -0.695312 26.5625 -0.378906 26.125 -0.140625 C 25.695312 0.0859375 25.082031 0.203125 24.28125 0.203125 C 22.75 0.203125 21.148438 0.148438 19.484375 0.046875 C 17.816406 -0.046875 15.988281 -0.09375 14 -0.09375 C 12 -0.09375 10.046875 0.00390625 8.140625 0.203125 C 6.242188 0.398438 4.332031 0.5 2.40625 0.5 Z M 26.1875 -28.484375 L 40.078125 -28.484375 C 41.015625 -28.484375 41.484375 -28.6875 41.484375 -29.09375 C 41.484375 -29.289062 41.460938 -29.453125 41.421875 -29.578125 C 41.390625 -29.710938 41.34375 -29.914062 41.28125 -30.1875 L 34.28125 -53.28125 C 34.019531 -54.207031 33.785156 -54.671875 33.578125 -54.671875 C 33.453125 -54.671875 33.222656 -54.238281 32.890625 -53.375 L 24.484375 -30.1875 C 24.347656 -29.851562 24.28125 -29.585938 24.28125 -29.390625 C 24.28125 -29.054688 24.460938 -28.820312 24.828125 -28.6875 C 25.203125 -28.550781 25.65625 -28.484375 26.1875 -28.484375 Z M 26.1875 -28.484375 "/></g></g></g><g fill="#000000" fill-opacity="1"><g transform="translate(2389.659013, 1454.954811)"><g><path d="M 18.890625 0.59375 C 18.023438 0.59375 17.34375 0.457031 16.84375 0.1875 C 16.34375 -0.0703125 16.09375 -0.4375 16.09375 -0.90625 C 16.09375 -1.4375 16.375 -1.847656 16.9375 -2.140625 C 17.507812 -2.441406 18.226562 -2.695312 19.09375 -2.90625 C 21.625 -3.363281 23.453125 -4.257812 24.578125 -5.59375 C 25.710938 -6.925781 26.28125 -8.691406 26.28125 -10.890625 L 26.28125 -25.09375 C 26.28125 -27.019531 25.945312 -28.765625 25.28125 -30.328125 C 24.613281 -31.898438 23.984375 -33.21875 23.390625 -34.28125 L 10.890625 -53.96875 C 10.359375 -54.84375 9.675781 -55.828125 8.84375 -56.921875 C 8.007812 -58.023438 7.09375 -59.039062 6.09375 -59.96875 C 5.09375 -60.90625 3.960938 -61.539062 2.703125 -61.875 C 1.898438 -62.132812 1.25 -62.414062 0.75 -62.71875 C 0.25 -63.019531 0 -63.4375 0 -63.96875 C 0 -64.4375 0.234375 -64.785156 0.703125 -65.015625 C 1.171875 -65.253906 1.738281 -65.375 2.40625 -65.375 C 4.800781 -65.375 7.179688 -65.289062 9.546875 -65.125 C 11.910156 -64.957031 14.425781 -64.875 17.09375 -64.875 C 19.019531 -64.875 20.863281 -64.957031 22.625 -65.125 C 24.394531 -65.289062 26.21875 -65.375 28.09375 -65.375 C 28.757812 -65.375 29.390625 -65.253906 29.984375 -65.015625 C 30.585938 -64.785156 30.890625 -64.4375 30.890625 -63.96875 C 30.890625 -63.4375 30.585938 -63.003906 29.984375 -62.671875 C 29.390625 -62.335938 28.691406 -62.070312 27.890625 -61.875 C 26.359375 -61.539062 25.207031 -61.140625 24.4375 -60.671875 C 23.675781 -60.203125 23.296875 -59.503906 23.296875 -58.578125 C 23.296875 -57.578125 23.691406 -56.410156 24.484375 -55.078125 L 34.390625 -37.578125 C 35.253906 -35.910156 35.984375 -35.078125 36.578125 -35.078125 C 36.910156 -35.078125 37.242188 -35.273438 37.578125 -35.671875 C 37.910156 -36.078125 38.34375 -36.710938 38.875 -37.578125 C 40.476562 -40.179688 41.945312 -42.75 43.28125 -45.28125 C 44.613281 -47.8125 46.046875 -50.578125 47.578125 -53.578125 C 47.972656 -54.378906 48.285156 -55.160156 48.515625 -55.921875 C 48.753906 -56.691406 48.875 -57.375 48.875 -57.96875 C 48.875 -59.300781 48.335938 -60.25 47.265625 -60.8125 C 46.203125 -61.382812 45.109375 -61.738281 43.984375 -61.875 C 43.316406 -61.9375 42.613281 -62.164062 41.875 -62.5625 C 41.144531 -62.96875 40.78125 -63.4375 40.78125 -63.96875 C 40.78125 -64.4375 41.078125 -64.769531 41.671875 -64.96875 C 42.273438 -65.164062 42.941406 -65.265625 43.671875 -65.265625 C 45.472656 -65.265625 47.054688 -65.195312 48.421875 -65.0625 C 49.785156 -64.9375 51.300781 -64.875 52.96875 -64.875 C 54.84375 -64.875 56.628906 -64.972656 58.328125 -65.171875 C 60.023438 -65.367188 61.671875 -65.46875 63.265625 -65.46875 C 64.066406 -65.46875 64.75 -65.367188 65.3125 -65.171875 C 65.882812 -64.972656 66.171875 -64.601562 66.171875 -64.0625 C 66.171875 -63.46875 65.769531 -63.019531 64.96875 -62.71875 C 64.164062 -62.414062 63.300781 -62.132812 62.375 -61.875 C 60.507812 -61.34375 58.910156 -60.441406 57.578125 -59.171875 C 56.242188 -57.898438 54.941406 -56.269531 53.671875 -54.28125 C 52.535156 -52.40625 51.46875 -50.6875 50.46875 -49.125 C 49.476562 -47.5625 48.53125 -46.0625 47.625 -44.625 C 46.726562 -43.195312 45.8125 -41.734375 44.875 -40.234375 C 43.945312 -38.734375 42.945312 -37.082031 41.875 -35.28125 C 41.207031 -34.144531 40.691406 -33.109375 40.328125 -32.171875 C 39.960938 -31.242188 39.679688 -30.28125 39.484375 -29.28125 C 39.285156 -28.28125 39.1875 -27.113281 39.1875 -25.78125 L 39.1875 -11 C 39.1875 -8.53125 39.75 -6.710938 40.875 -5.546875 C 42.007812 -4.378906 43.84375 -3.5 46.375 -2.90625 C 47.3125 -2.695312 48.0625 -2.457031 48.625 -2.1875 C 49.195312 -1.925781 49.484375 -1.5 49.484375 -0.90625 C 49.484375 -0.5 49.234375 -0.164062 48.734375 0.09375 C 48.234375 0.363281 47.582031 0.5 46.78125 0.5 C 45.175781 0.5 43.570312 0.429688 41.96875 0.296875 C 40.375 0.160156 38.828125 0.046875 37.328125 -0.046875 C 35.828125 -0.148438 34.347656 -0.203125 32.890625 -0.203125 C 31.421875 -0.203125 29.921875 -0.148438 28.390625 -0.046875 C 26.859375 0.046875 25.289062 0.175781 23.6875 0.34375 C 22.09375 0.507812 20.492188 0.59375 18.890625 0.59375 Z M 18.890625 0.59375 "/></g></g></g><g fill="#000000" fill-opacity="1"><g transform="translate(2473.724081, 1454.954811)"><g/></g></g><g fill="#000000" fill-opacity="1"><g transform="translate(2517.406262, 1454.954811)"><g><path d="M 4.5 0.40625 C 3.894531 0.40625 3.359375 0.285156 2.890625 0.046875 C 2.429688 -0.179688 2.203125 -0.5 2.203125 -0.90625 C 2.203125 -1.90625 3.035156 -2.570312 4.703125 -2.90625 C 7.234375 -3.4375 8.976562 -4.164062 9.9375 -5.09375 C 10.90625 -6.03125 11.390625 -7.597656 11.390625 -9.796875 L 11.390625 -53.78125 C 11.390625 -56.3125 10.972656 -58.175781 10.140625 -59.375 C 9.304688 -60.570312 7.691406 -61.4375 5.296875 -61.96875 C 4.359375 -62.164062 3.691406 -62.445312 3.296875 -62.8125 C 2.898438 -63.1875 2.703125 -63.570312 2.703125 -63.96875 C 2.703125 -64.4375 2.914062 -64.785156 3.34375 -65.015625 C 3.78125 -65.253906 4.363281 -65.375 5.09375 -65.375 C 6.957031 -65.375 8.753906 -65.335938 10.484375 -65.265625 C 12.222656 -65.203125 13.925781 -65.132812 15.59375 -65.0625 C 17.257812 -65 18.957031 -64.96875 20.6875 -64.96875 C 23.082031 -64.96875 25.695312 -64.96875 28.53125 -64.96875 C 31.363281 -64.96875 34.046875 -64.96875 36.578125 -64.96875 C 39.109375 -64.96875 41.390625 -65.148438 43.421875 -65.515625 C 45.460938 -65.878906 47.179688 -66.0625 48.578125 -66.0625 C 48.972656 -66.0625 49.421875 -65.945312 49.921875 -65.71875 C 50.421875 -65.488281 50.707031 -65.070312 50.78125 -64.46875 C 50.90625 -63.207031 51 -61.773438 51.0625 -60.171875 C 51.132812 -58.566406 51.1875 -57.03125 51.21875 -55.5625 C 51.257812 -54.101562 51.28125 -52.941406 51.28125 -52.078125 C 51.28125 -50.742188 50.910156 -50.078125 50.171875 -50.078125 C 49.835938 -50.078125 49.488281 -50.207031 49.125 -50.46875 C 48.757812 -50.738281 48.507812 -51.109375 48.375 -51.578125 C 47.976562 -53.046875 47.53125 -54.359375 47.03125 -55.515625 C 46.53125 -56.679688 45.910156 -57.597656 45.171875 -58.265625 C 44.304688 -59.265625 43.289062 -59.960938 42.125 -60.359375 C 40.957031 -60.765625 39.609375 -60.96875 38.078125 -60.96875 L 28.984375 -60.96875 C 27.390625 -60.96875 26.207031 -60.515625 25.4375 -59.609375 C 24.664062 -58.710938 24.28125 -57.566406 24.28125 -56.171875 C 24.28125 -54.972656 24.28125 -53.539062 24.28125 -51.875 C 24.28125 -50.207031 24.28125 -48.640625 24.28125 -47.171875 C 24.28125 -45.640625 24.28125 -44.007812 24.28125 -42.28125 C 24.28125 -40.550781 24.28125 -38.984375 24.28125 -37.578125 C 24.28125 -36.910156 24.429688 -36.359375 24.734375 -35.921875 C 25.035156 -35.492188 25.519531 -35.28125 26.1875 -35.28125 C 27.988281 -35.28125 29.804688 -35.3125 31.640625 -35.375 C 33.472656 -35.445312 35.085938 -35.484375 36.484375 -35.484375 C 38.078125 -35.484375 39.320312 -35.945312 40.21875 -36.875 C 41.125 -37.8125 41.84375 -38.945312 42.375 -40.28125 C 42.644531 -40.75 42.960938 -41.148438 43.328125 -41.484375 C 43.691406 -41.816406 44.039062 -41.984375 44.375 -41.984375 C 44.707031 -41.984375 45.023438 -41.816406 45.328125 -41.484375 C 45.628906 -41.148438 45.742188 -40.648438 45.671875 -39.984375 C 45.546875 -38.710938 45.429688 -37.523438 45.328125 -36.421875 C 45.222656 -35.328125 45.171875 -34.316406 45.171875 -33.390625 C 45.171875 -32.179688 45.203125 -31.109375 45.265625 -30.171875 C 45.335938 -29.242188 45.441406 -28.015625 45.578125 -26.484375 C 45.640625 -25.753906 45.585938 -25.1875 45.421875 -24.78125 C 45.253906 -24.382812 44.972656 -24.1875 44.578125 -24.1875 C 44.046875 -24.1875 43.5625 -24.453125 43.125 -24.984375 C 42.695312 -25.515625 42.414062 -26.050781 42.28125 -26.59375 C 41.75 -28.382812 41.066406 -29.613281 40.234375 -30.28125 C 39.398438 -30.945312 38.445312 -31.28125 37.375 -31.28125 C 36.582031 -31.28125 35.769531 -31.296875 34.9375 -31.328125 C 34.101562 -31.367188 33.316406 -31.390625 32.578125 -31.390625 C 31.578125 -31.390625 30.5625 -31.390625 29.53125 -31.390625 C 28.5 -31.390625 27.484375 -31.351562 26.484375 -31.28125 C 25.753906 -31.21875 25.1875 -31 24.78125 -30.625 C 24.382812 -30.257812 24.1875 -29.679688 24.1875 -28.890625 C 24.1875 -25.816406 24.203125 -22.679688 24.234375 -19.484375 C 24.265625 -16.285156 24.316406 -13.085938 24.390625 -9.890625 C 24.453125 -7.828125 25.015625 -6.296875 26.078125 -5.296875 C 27.148438 -4.296875 29.019531 -3.5 31.6875 -2.90625 C 32.550781 -2.769531 33.179688 -2.550781 33.578125 -2.25 C 33.984375 -1.945312 34.1875 -1.53125 34.1875 -1 C 34.1875 -0.53125 34 -0.195312 33.625 0 C 33.257812 0.195312 32.710938 0.296875 31.984375 0.296875 C 30.453125 0.296875 28.867188 0.242188 27.234375 0.140625 C 25.597656 0.046875 24.03125 -0.03125 22.53125 -0.09375 C 21.039062 -0.164062 19.660156 -0.203125 18.390625 -0.203125 C 16.921875 -0.203125 15.421875 -0.164062 13.890625 -0.09375 C 12.359375 -0.03125 10.804688 0.0664062 9.234375 0.203125 C 7.671875 0.335938 6.09375 0.40625 4.5 0.40625 Z M 4.5 0.40625 "/></g></g></g><g fill="#000000" fill-opacity="1"><g transform="translate(2592.075327, 1454.954811)"><g><path d="M 37.578125 1.40625 C 33.046875 1.40625 28.710938 0.625 24.578125 -0.9375 C 20.453125 -2.507812 16.804688 -4.742188 13.640625 -7.640625 C 10.472656 -10.546875 7.972656 -14.015625 6.140625 -18.046875 C 4.304688 -22.078125 3.390625 -26.554688 3.390625 -31.484375 C 3.390625 -36.015625 4.140625 -40.363281 5.640625 -44.53125 C 7.140625 -48.695312 9.375 -52.410156 12.34375 -55.671875 C 15.3125 -58.941406 18.976562 -61.539062 23.34375 -63.46875 C 27.707031 -65.40625 32.753906 -66.375 38.484375 -66.375 C 43.015625 -66.375 47.328125 -65.585938 51.421875 -64.015625 C 55.523438 -62.453125 59.175781 -60.21875 62.375 -57.3125 C 65.570312 -54.414062 68.085938 -50.953125 69.921875 -46.921875 C 71.753906 -42.890625 72.671875 -38.410156 72.671875 -33.484375 C 72.671875 -29.015625 71.921875 -24.679688 70.421875 -20.484375 C 68.921875 -16.285156 66.6875 -12.550781 63.71875 -9.28125 C 60.75 -6.019531 57.082031 -3.421875 52.71875 -1.484375 C 48.351562 0.441406 43.304688 1.40625 37.578125 1.40625 Z M 39.28125 -3 C 43.476562 -3 46.992188 -4.0625 49.828125 -6.1875 C 52.660156 -8.320312 54.789062 -11.304688 56.21875 -15.140625 C 57.65625 -18.972656 58.375 -23.390625 58.375 -28.390625 C 58.375 -32.648438 57.941406 -36.78125 57.078125 -40.78125 C 56.210938 -44.78125 54.878906 -48.363281 53.078125 -51.53125 C 51.273438 -54.695312 49.023438 -57.210938 46.328125 -59.078125 C 43.628906 -60.941406 40.414062 -61.875 36.6875 -61.875 C 32.488281 -61.875 28.972656 -60.804688 26.140625 -58.671875 C 23.304688 -56.535156 21.1875 -53.566406 19.78125 -49.765625 C 18.382812 -45.972656 17.6875 -41.578125 17.6875 -36.578125 C 17.6875 -32.316406 18.117188 -28.1875 18.984375 -24.1875 C 19.859375 -20.1875 21.175781 -16.585938 22.9375 -13.390625 C 24.707031 -10.191406 26.941406 -7.660156 29.640625 -5.796875 C 32.335938 -3.929688 35.550781 -3 39.28125 -3 Z M 39.28125 -3 "/></g></g></g><g fill="#000000" fill-opacity="1"><g transform="translate(2689.334828, 1454.954811)"><g><path d="M 64.171875 2.09375 C 61.304688 2.09375 58.804688 1.773438 56.671875 1.140625 C 54.535156 0.515625 52.703125 -0.394531 51.171875 -1.59375 C 49.640625 -2.789062 48.242188 -4.191406 46.984375 -5.796875 C 45.515625 -7.796875 44.078125 -9.742188 42.671875 -11.640625 C 41.273438 -13.546875 39.859375 -15.644531 38.421875 -17.9375 C 36.992188 -20.238281 35.414062 -22.988281 33.6875 -26.1875 C 32.820312 -27.71875 31.722656 -28.851562 30.390625 -29.59375 C 29.523438 -30.050781 28.640625 -30.378906 27.734375 -30.578125 C 26.835938 -30.785156 26.085938 -30.890625 25.484375 -30.890625 C 25.085938 -30.953125 24.785156 -30.78125 24.578125 -30.375 C 24.378906 -29.976562 24.28125 -29.484375 24.28125 -28.890625 L 24.28125 -10.296875 C 24.28125 -8.234375 24.832031 -6.632812 25.9375 -5.5 C 27.039062 -4.363281 28.921875 -3.5 31.578125 -2.90625 C 32.453125 -2.769531 33.085938 -2.550781 33.484375 -2.25 C 33.878906 -1.945312 34.078125 -1.53125 34.078125 -1 C 34.078125 -0.53125 33.894531 -0.195312 33.53125 0 C 33.164062 0.195312 32.617188 0.296875 31.890625 0.296875 C 30.359375 0.296875 28.789062 0.242188 27.1875 0.140625 C 25.582031 0.046875 24.03125 -0.03125 22.53125 -0.09375 C 21.039062 -0.164062 19.628906 -0.203125 18.296875 -0.203125 C 16.828125 -0.203125 15.304688 -0.164062 13.734375 -0.09375 C 12.171875 -0.03125 10.585938 0.0664062 8.984375 0.203125 C 7.390625 0.335938 5.796875 0.40625 4.203125 0.40625 C 3.597656 0.40625 3.0625 0.285156 2.59375 0.046875 C 2.132812 -0.179688 1.90625 -0.5 1.90625 -0.90625 C 1.90625 -1.90625 2.734375 -2.570312 4.390625 -2.90625 C 6.929688 -3.4375 8.734375 -4.164062 9.796875 -5.09375 C 10.859375 -6.03125 11.390625 -7.597656 11.390625 -9.796875 L 11.390625 -53.96875 C 11.390625 -55.90625 11.238281 -57.390625 10.9375 -58.421875 C 10.644531 -59.453125 10.0625 -60.234375 9.1875 -60.765625 C 8.320312 -61.304688 7.023438 -61.707031 5.296875 -61.96875 C 4.359375 -62.101562 3.691406 -62.367188 3.296875 -62.765625 C 2.898438 -63.171875 2.703125 -63.570312 2.703125 -63.96875 C 2.703125 -64.4375 2.914062 -64.785156 3.34375 -65.015625 C 3.78125 -65.253906 4.363281 -65.375 5.09375 -65.375 C 7.09375 -65.375 8.691406 -65.335938 9.890625 -65.265625 C 11.085938 -65.203125 12.238281 -65.117188 13.34375 -65.015625 C 14.445312 -64.921875 15.765625 -64.875 17.296875 -64.875 C 18.753906 -64.875 20.050781 -64.9375 21.1875 -65.0625 C 22.320312 -65.195312 23.585938 -65.332031 24.984375 -65.46875 C 26.390625 -65.601562 28.191406 -65.671875 30.390625 -65.671875 C 38.046875 -65.671875 43.90625 -64.335938 47.96875 -61.671875 C 52.039062 -59.003906 54.078125 -54.941406 54.078125 -49.484375 C 54.078125 -46.484375 53.441406 -43.929688 52.171875 -41.828125 C 50.910156 -39.734375 49.328125 -38.019531 47.421875 -36.6875 C 45.523438 -35.351562 43.578125 -34.316406 41.578125 -33.578125 C 41.316406 -33.515625 41.203125 -33.347656 41.234375 -33.078125 C 41.265625 -32.816406 41.378906 -32.585938 41.578125 -32.390625 C 43.578125 -29.316406 45.523438 -26.394531 47.421875 -23.625 C 49.328125 -20.863281 51.328125 -18.25 53.421875 -15.78125 C 55.523438 -13.320312 57.804688 -10.960938 60.265625 -8.703125 C 62.335938 -6.765625 64.457031 -5.613281 66.625 -5.25 C 68.789062 -4.882812 71.035156 -4.703125 73.359375 -4.703125 C 74.359375 -4.703125 74.859375 -4.203125 74.859375 -3.203125 C 74.859375 -1.867188 74.359375 -0.816406 73.359375 -0.046875 C 72.359375 0.710938 71.039062 1.257812 69.40625 1.59375 C 67.78125 1.925781 66.035156 2.09375 64.171875 2.09375 Z M 28.59375 -33.78125 C 31.320312 -33.78125 33.601562 -34.394531 35.4375 -35.625 C 37.269531 -36.863281 38.664062 -38.515625 39.625 -40.578125 C 40.59375 -42.640625 41.078125 -44.941406 41.078125 -47.484375 C 41.078125 -50.472656 40.707031 -53.015625 39.96875 -55.109375 C 39.238281 -57.210938 37.988281 -58.847656 36.21875 -60.015625 C 34.457031 -61.179688 32.046875 -61.765625 28.984375 -61.765625 C 27.253906 -61.765625 26.070312 -61.148438 25.4375 -59.921875 C 24.800781 -58.691406 24.453125 -56.207031 24.390625 -52.46875 C 24.316406 -50.9375 24.28125 -48.921875 24.28125 -46.421875 C 24.28125 -43.929688 24.28125 -40.953125 24.28125 -37.484375 C 24.28125 -36.015625 24.664062 -35.03125 25.4375 -34.53125 C 26.207031 -34.03125 27.257812 -33.78125 28.59375 -33.78125 Z M 28.59375 -33.78125 "/></g></g></g><g fill="#000000" fill-opacity="1"><g transform="translate(2784.895033, 1454.954811)"><g/></g></g><g fill="#000000" fill-opacity="1"><g transform="translate(2828.577214, 1454.954811)"><g><path d="M 4.796875 0.40625 C 4.191406 0.40625 3.65625 0.269531 3.1875 0 C 2.726562 -0.269531 2.5 -0.601562 2.5 -1 C 2.5 -1.9375 3.332031 -2.570312 5 -2.90625 C 7.394531 -3.4375 8.992188 -4.164062 9.796875 -5.09375 C 10.597656 -6.03125 11 -7.597656 11 -9.796875 L 11 -55.078125 C 11 -57.273438 10.664062 -58.835938 10 -59.765625 C 9.332031 -60.703125 7.765625 -61.4375 5.296875 -61.96875 C 3.628906 -62.300781 2.796875 -62.96875 2.796875 -63.96875 C 2.796875 -64.4375 3.007812 -64.785156 3.4375 -65.015625 C 3.875 -65.253906 4.425781 -65.375 5.09375 -65.375 C 6.695312 -65.375 8.195312 -65.335938 9.59375 -65.265625 C 10.988281 -65.203125 12.351562 -65.132812 13.6875 -65.0625 C 15.019531 -65 16.351562 -64.96875 17.6875 -64.96875 C 19.019531 -64.96875 20.398438 -65 21.828125 -65.0625 C 23.265625 -65.132812 24.75 -65.203125 26.28125 -65.265625 C 27.820312 -65.335938 29.359375 -65.375 30.890625 -65.375 C 32.347656 -65.375 33.078125 -64.875 33.078125 -63.875 C 33.078125 -63.34375 32.878906 -62.941406 32.484375 -62.671875 C 32.085938 -62.398438 31.453125 -62.164062 30.578125 -61.96875 C 27.984375 -61.300781 26.234375 -60.46875 25.328125 -59.46875 C 24.429688 -58.46875 23.984375 -56.96875 23.984375 -54.96875 L 23.984375 -36.390625 C 23.984375 -35.921875 24.132812 -35.601562 24.4375 -35.4375 C 24.738281 -35.269531 25.085938 -35.1875 25.484375 -35.1875 L 55.375 -35.1875 C 56.101562 -35.1875 56.46875 -35.648438 56.46875 -36.578125 L 56.46875 -55.078125 C 56.46875 -57.003906 56.035156 -58.46875 55.171875 -59.46875 C 54.304688 -60.46875 52.578125 -61.300781 49.984375 -61.96875 C 49.109375 -62.164062 48.453125 -62.398438 48.015625 -62.671875 C 47.585938 -62.941406 47.375 -63.34375 47.375 -63.875 C 47.375 -64.875 48.109375 -65.375 49.578125 -65.375 C 51.171875 -65.375 52.765625 -65.335938 54.359375 -65.265625 C 55.960938 -65.203125 57.515625 -65.132812 59.015625 -65.0625 C 60.515625 -65 61.96875 -64.96875 63.375 -64.96875 C 64.632812 -64.96875 65.863281 -65 67.0625 -65.0625 C 68.269531 -65.132812 69.554688 -65.203125 70.921875 -65.265625 C 72.285156 -65.335938 73.765625 -65.375 75.359375 -65.375 C 75.960938 -65.375 76.492188 -65.253906 76.953125 -65.015625 C 77.421875 -64.785156 77.65625 -64.4375 77.65625 -63.96875 C 77.65625 -62.96875 76.789062 -62.300781 75.0625 -61.96875 C 72.726562 -61.4375 71.210938 -60.671875 70.515625 -59.671875 C 69.816406 -58.671875 69.46875 -57.140625 69.46875 -55.078125 L 69.46875 -9.796875 C 69.46875 -7.597656 69.832031 -6.03125 70.5625 -5.09375 C 71.300781 -4.164062 72.867188 -3.4375 75.265625 -2.90625 C 76.929688 -2.570312 77.765625 -1.9375 77.765625 -1 C 77.765625 -0.601562 77.53125 -0.269531 77.0625 0 C 76.59375 0.269531 76.0625 0.40625 75.46875 0.40625 C 73.9375 0.40625 72.46875 0.351562 71.0625 0.25 C 69.664062 0.144531 68.285156 0.0625 66.921875 0 C 65.554688 -0.0625 64.207031 -0.09375 62.875 -0.09375 C 61.539062 -0.09375 60.140625 -0.0625 58.671875 0 C 57.203125 0.0625 55.703125 0.125 54.171875 0.1875 C 52.640625 0.257812 51.078125 0.296875 49.484375 0.296875 C 48.878906 0.296875 48.375 0.179688 47.96875 -0.046875 C 47.570312 -0.285156 47.375 -0.632812 47.375 -1.09375 C 47.375 -1.632812 47.570312 -2.019531 47.96875 -2.25 C 48.375 -2.476562 48.976562 -2.695312 49.78125 -2.90625 C 52.175781 -3.5 53.890625 -4.296875 54.921875 -5.296875 C 55.953125 -6.296875 56.46875 -7.796875 56.46875 -9.796875 L 56.46875 -28.78125 C 56.46875 -29.1875 56.414062 -29.554688 56.3125 -29.890625 C 56.21875 -30.222656 55.9375 -30.390625 55.46875 -30.390625 L 25.09375 -30.390625 C 24.351562 -30.390625 23.984375 -29.890625 23.984375 -28.890625 L 23.984375 -10.1875 C 23.984375 -8.195312 24.566406 -6.632812 25.734375 -5.5 C 26.898438 -4.363281 28.679688 -3.5 31.078125 -2.90625 C 31.953125 -2.695312 32.585938 -2.476562 32.984375 -2.25 C 33.378906 -2.019531 33.578125 -1.632812 33.578125 -1.09375 C 33.578125 -0.632812 33.394531 -0.285156 33.03125 -0.046875 C 32.664062 0.179688 32.117188 0.296875 31.390625 0.296875 C 29.859375 0.296875 28.289062 0.257812 26.6875 0.1875 C 25.082031 0.125 23.53125 0.0625 22.03125 0 C 20.539062 -0.0625 19.09375 -0.09375 17.6875 -0.09375 C 16.289062 -0.09375 14.890625 -0.0625 13.484375 0 C 12.085938 0.0625 10.65625 0.144531 9.1875 0.25 C 7.726562 0.351562 6.265625 0.40625 4.796875 0.40625 Z M 4.796875 0.40625 "/></g></g></g><g fill="#000000" fill-opacity="1"><g transform="translate(2930.134922, 1454.954811)"><g><path d="M 4 0.40625 C 3.394531 0.40625 2.859375 0.285156 2.390625 0.046875 C 1.929688 -0.179688 1.703125 -0.5 1.703125 -0.90625 C 1.703125 -1.90625 2.535156 -2.570312 4.203125 -2.90625 C 6.734375 -3.4375 8.5625 -4.164062 9.6875 -5.09375 C 10.820312 -6.03125 11.390625 -7.566406 11.390625 -9.703125 L 11.390625 -55.078125 C 11.390625 -57.273438 10.921875 -58.835938 9.984375 -59.765625 C 9.054688 -60.703125 7.296875 -61.4375 4.703125 -61.96875 C 3.035156 -62.300781 2.203125 -63 2.203125 -64.0625 C 2.203125 -64.46875 2.429688 -64.785156 2.890625 -65.015625 C 3.359375 -65.253906 3.894531 -65.375 4.5 -65.375 C 6.09375 -65.375 7.65625 -65.335938 9.1875 -65.265625 C 10.726562 -65.203125 12.210938 -65.132812 13.640625 -65.0625 C 15.078125 -65 16.523438 -64.96875 17.984375 -64.96875 C 19.390625 -64.96875 20.804688 -65 22.234375 -65.0625 C 23.671875 -65.132812 25.15625 -65.203125 26.6875 -65.265625 C 28.21875 -65.335938 29.785156 -65.375 31.390625 -65.375 C 32.054688 -65.375 32.585938 -65.253906 32.984375 -65.015625 C 33.378906 -64.785156 33.578125 -64.4375 33.578125 -63.96875 C 33.578125 -63.4375 33.359375 -63.019531 32.921875 -62.71875 C 32.492188 -62.414062 31.878906 -62.164062 31.078125 -61.96875 C 28.421875 -61.300781 26.625 -60.5 25.6875 -59.5625 C 24.75 -58.632812 24.28125 -57.101562 24.28125 -54.96875 L 24.28125 -9.796875 C 24.28125 -7.734375 24.832031 -6.234375 25.9375 -5.296875 C 27.039062 -4.359375 28.859375 -3.5625 31.390625 -2.90625 C 32.253906 -2.695312 32.898438 -2.457031 33.328125 -2.1875 C 33.765625 -1.925781 33.984375 -1.53125 33.984375 -1 C 33.984375 -0.53125 33.78125 -0.195312 33.375 0 C 32.976562 0.195312 32.445312 0.296875 31.78125 0.296875 C 30.1875 0.296875 28.585938 0.257812 26.984375 0.1875 C 25.390625 0.125 23.84375 0.0625 22.34375 0 C 20.84375 -0.0625 19.390625 -0.09375 17.984375 -0.09375 C 16.523438 -0.09375 15.023438 -0.0625 13.484375 0 C 11.953125 0.0625 10.382812 0.144531 8.78125 0.25 C 7.1875 0.351562 5.59375 0.40625 4 0.40625 Z M 4 0.40625 "/></g></g></g><g fill="#000000" fill-opacity="1"><g transform="translate(2986.911599, 1454.954811)"><g><path d="M 64.171875 2.09375 C 61.304688 2.09375 58.804688 1.773438 56.671875 1.140625 C 54.535156 0.515625 52.703125 -0.394531 51.171875 -1.59375 C 49.640625 -2.789062 48.242188 -4.191406 46.984375 -5.796875 C 45.515625 -7.796875 44.078125 -9.742188 42.671875 -11.640625 C 41.273438 -13.546875 39.859375 -15.644531 38.421875 -17.9375 C 36.992188 -20.238281 35.414062 -22.988281 33.6875 -26.1875 C 32.820312 -27.71875 31.722656 -28.851562 30.390625 -29.59375 C 29.523438 -30.050781 28.640625 -30.378906 27.734375 -30.578125 C 26.835938 -30.785156 26.085938 -30.890625 25.484375 -30.890625 C 25.085938 -30.953125 24.785156 -30.78125 24.578125 -30.375 C 24.378906 -29.976562 24.28125 -29.484375 24.28125 -28.890625 L 24.28125 -10.296875 C 24.28125 -8.234375 24.832031 -6.632812 25.9375 -5.5 C 27.039062 -4.363281 28.921875 -3.5 31.578125 -2.90625 C 32.453125 -2.769531 33.085938 -2.550781 33.484375 -2.25 C 33.878906 -1.945312 34.078125 -1.53125 34.078125 -1 C 34.078125 -0.53125 33.894531 -0.195312 33.53125 0 C 33.164062 0.195312 32.617188 0.296875 31.890625 0.296875 C 30.359375 0.296875 28.789062 0.242188 27.1875 0.140625 C 25.582031 0.046875 24.03125 -0.03125 22.53125 -0.09375 C 21.039062 -0.164062 19.628906 -0.203125 18.296875 -0.203125 C 16.828125 -0.203125 15.304688 -0.164062 13.734375 -0.09375 C 12.171875 -0.03125 10.585938 0.0664062 8.984375 0.203125 C 7.390625 0.335938 5.796875 0.40625 4.203125 0.40625 C 3.597656 0.40625 3.0625 0.285156 2.59375 0.046875 C 2.132812 -0.179688 1.90625 -0.5 1.90625 -0.90625 C 1.90625 -1.90625 2.734375 -2.570312 4.390625 -2.90625 C 6.929688 -3.4375 8.734375 -4.164062 9.796875 -5.09375 C 10.859375 -6.03125 11.390625 -7.597656 11.390625 -9.796875 L 11.390625 -53.96875 C 11.390625 -55.90625 11.238281 -57.390625 10.9375 -58.421875 C 10.644531 -59.453125 10.0625 -60.234375 9.1875 -60.765625 C 8.320312 -61.304688 7.023438 -61.707031 5.296875 -61.96875 C 4.359375 -62.101562 3.691406 -62.367188 3.296875 -62.765625 C 2.898438 -63.171875 2.703125 -63.570312 2.703125 -63.96875 C 2.703125 -64.4375 2.914062 -64.785156 3.34375 -65.015625 C 3.78125 -65.253906 4.363281 -65.375 5.09375 -65.375 C 7.09375 -65.375 8.691406 -65.335938 9.890625 -65.265625 C 11.085938 -65.203125 12.238281 -65.117188 13.34375 -65.015625 C 14.445312 -64.921875 15.765625 -64.875 17.296875 -64.875 C 18.753906 -64.875 20.050781 -64.9375 21.1875 -65.0625 C 22.320312 -65.195312 23.585938 -65.332031 24.984375 -65.46875 C 26.390625 -65.601562 28.191406 -65.671875 30.390625 -65.671875 C 38.046875 -65.671875 43.90625 -64.335938 47.96875 -61.671875 C 52.039062 -59.003906 54.078125 -54.941406 54.078125 -49.484375 C 54.078125 -46.484375 53.441406 -43.929688 52.171875 -41.828125 C 50.910156 -39.734375 49.328125 -38.019531 47.421875 -36.6875 C 45.523438 -35.351562 43.578125 -34.316406 41.578125 -33.578125 C 41.316406 -33.515625 41.203125 -33.347656 41.234375 -33.078125 C 41.265625 -32.816406 41.378906 -32.585938 41.578125 -32.390625 C 43.578125 -29.316406 45.523438 -26.394531 47.421875 -23.625 C 49.328125 -20.863281 51.328125 -18.25 53.421875 -15.78125 C 55.523438 -13.320312 57.804688 -10.960938 60.265625 -8.703125 C 62.335938 -6.765625 64.457031 -5.613281 66.625 -5.25 C 68.789062 -4.882812 71.035156 -4.703125 73.359375 -4.703125 C 74.359375 -4.703125 74.859375 -4.203125 74.859375 -3.203125 C 74.859375 -1.867188 74.359375 -0.816406 73.359375 -0.046875 C 72.359375 0.710938 71.039062 1.257812 69.40625 1.59375 C 67.78125 1.925781 66.035156 2.09375 64.171875 2.09375 Z M 28.59375 -33.78125 C 31.320312 -33.78125 33.601562 -34.394531 35.4375 -35.625 C 37.269531 -36.863281 38.664062 -38.515625 39.625 -40.578125 C 40.59375 -42.640625 41.078125 -44.941406 41.078125 -47.484375 C 41.078125 -50.472656 40.707031 -53.015625 39.96875 -55.109375 C 39.238281 -57.210938 37.988281 -58.847656 36.21875 -60.015625 C 34.457031 -61.179688 32.046875 -61.765625 28.984375 -61.765625 C 27.253906 -61.765625 26.070312 -61.148438 25.4375 -59.921875 C 24.800781 -58.691406 24.453125 -56.207031 24.390625 -52.46875 C 24.316406 -50.9375 24.28125 -48.921875 24.28125 -46.421875 C 24.28125 -43.929688 24.28125 -40.953125 24.28125 -37.484375 C 24.28125 -36.015625 24.664062 -35.03125 25.4375 -34.53125 C 26.207031 -34.03125 27.257812 -33.78125 28.59375 -33.78125 Z M 28.59375 -33.78125 "/></g></g></g><g fill="#000000" fill-opacity="1"><g transform="translate(3082.471804, 1454.954811)"><g><path d="M 4.890625 0.5 C 4.160156 0.5 3.578125 0.363281 3.140625 0.09375 C 2.710938 -0.164062 2.5 -0.5 2.5 -0.90625 C 2.5 -1.769531 3.363281 -2.398438 5.09375 -2.796875 C 7.5 -3.398438 9.21875 -4.148438 10.25 -5.046875 C 11.28125 -5.941406 11.796875 -7.492188 11.796875 -9.703125 L 11.796875 -54.96875 C 11.796875 -57.238281 11.34375 -58.835938 10.4375 -59.765625 C 9.539062 -60.703125 7.859375 -61.4375 5.390625 -61.96875 C 4.460938 -62.164062 3.796875 -62.445312 3.390625 -62.8125 C 2.992188 -63.1875 2.796875 -63.570312 2.796875 -63.96875 C 2.796875 -64.4375 3.007812 -64.785156 3.4375 -65.015625 C 3.875 -65.253906 4.460938 -65.375 5.203125 -65.375 C 7.128906 -65.375 8.972656 -65.335938 10.734375 -65.265625 C 12.503906 -65.203125 14.222656 -65.132812 15.890625 -65.0625 C 17.554688 -65 19.289062 -64.96875 21.09375 -64.96875 C 24.15625 -64.96875 27.398438 -65 30.828125 -65.0625 C 34.265625 -65.132812 37.347656 -65.171875 40.078125 -65.171875 C 42.273438 -65.234375 44.085938 -65.332031 45.515625 -65.46875 C 46.953125 -65.601562 47.804688 -65.671875 48.078125 -65.671875 C 48.546875 -65.671875 49.03125 -65.566406 49.53125 -65.359375 C 50.03125 -65.160156 50.3125 -64.765625 50.375 -64.171875 C 50.644531 -61.972656 50.976562 -59.804688 51.375 -57.671875 C 51.769531 -55.535156 51.96875 -53.671875 51.96875 -52.078125 C 51.96875 -51.472656 51.816406 -51.019531 51.515625 -50.71875 C 51.222656 -50.425781 50.910156 -50.28125 50.578125 -50.28125 C 50.242188 -50.28125 49.941406 -50.394531 49.671875 -50.625 C 49.410156 -50.851562 49.179688 -51.203125 48.984375 -51.671875 C 48.441406 -53.203125 47.9375 -54.535156 47.46875 -55.671875 C 47.007812 -56.804688 46.476562 -57.671875 45.875 -58.265625 C 45.007812 -59.203125 44.007812 -59.9375 42.875 -60.46875 C 41.75 -61 40.382812 -61.265625 38.78125 -61.265625 L 29.484375 -61.265625 C 28.285156 -61.265625 27.1875 -60.914062 26.1875 -60.21875 C 25.1875 -59.519531 24.6875 -58.535156 24.6875 -57.265625 L 24.6875 -37.6875 C 24.6875 -36.945312 24.898438 -36.378906 25.328125 -35.984375 C 25.765625 -35.585938 26.285156 -35.390625 26.890625 -35.390625 L 36.078125 -35.390625 C 37.878906 -35.390625 39.160156 -35.882812 39.921875 -36.875 C 40.691406 -37.875 41.34375 -39.242188 41.875 -40.984375 C 42.34375 -42.316406 42.976562 -42.984375 43.78125 -42.984375 C 44.113281 -42.984375 44.410156 -42.796875 44.671875 -42.421875 C 44.941406 -42.054688 45.078125 -41.578125 45.078125 -40.984375 C 45.015625 -40.316406 44.945312 -39.515625 44.875 -38.578125 C 44.8125 -37.648438 44.757812 -36.71875 44.71875 -35.78125 C 44.6875 -34.851562 44.671875 -34.019531 44.671875 -33.28125 C 44.671875 -32.476562 44.6875 -31.578125 44.71875 -30.578125 C 44.757812 -29.585938 44.796875 -28.609375 44.828125 -27.640625 C 44.859375 -26.671875 44.910156 -25.851562 44.984375 -25.1875 C 45.046875 -24.457031 44.992188 -23.890625 44.828125 -23.484375 C 44.660156 -23.085938 44.378906 -22.890625 43.984375 -22.890625 C 42.910156 -22.890625 42.144531 -23.820312 41.6875 -25.6875 C 41.144531 -27.550781 40.507812 -28.945312 39.78125 -29.875 C 39.050781 -30.8125 38.050781 -31.28125 36.78125 -31.28125 L 27.390625 -31.28125 C 26.523438 -31.28125 25.859375 -31.113281 25.390625 -30.78125 C 24.921875 -30.445312 24.6875 -29.816406 24.6875 -28.890625 L 24.6875 -9.890625 C 24.6875 -7.691406 25.148438 -6.160156 26.078125 -5.296875 C 27.015625 -4.429688 28.453125 -4 30.390625 -4 L 38.578125 -4 C 40.242188 -4 41.757812 -4.164062 43.125 -4.5 C 44.488281 -4.832031 45.671875 -5.363281 46.671875 -6.09375 C 47.804688 -6.894531 48.820312 -7.976562 49.71875 -9.34375 C 50.625 -10.707031 51.507812 -12.222656 52.375 -13.890625 C 52.644531 -14.421875 52.910156 -14.769531 53.171875 -14.9375 C 53.441406 -15.101562 53.773438 -15.1875 54.171875 -15.1875 C 54.503906 -15.125 54.753906 -14.925781 54.921875 -14.59375 C 55.085938 -14.257812 55.171875 -13.894531 55.171875 -13.5 C 55.171875 -12.5625 55.003906 -11.359375 54.671875 -9.890625 C 54.335938 -8.429688 53.921875 -6.914062 53.421875 -5.34375 C 52.921875 -3.78125 52.472656 -2.332031 52.078125 -1 C 51.878906 -0.53125 51.613281 -0.179688 51.28125 0.046875 C 50.945312 0.285156 50.546875 0.40625 50.078125 0.40625 C 48.472656 0.40625 46.421875 0.382812 43.921875 0.34375 C 41.429688 0.3125 38.71875 0.257812 35.78125 0.1875 C 32.851562 0.125 29.851562 0.078125 26.78125 0.046875 C 23.71875 0.015625 20.785156 0 17.984375 0 C 16.585938 0 15.171875 0.03125 13.734375 0.09375 C 12.304688 0.164062 10.859375 0.25 9.390625 0.34375 C 7.929688 0.445312 6.429688 0.5 4.890625 0.5 Z M 4.890625 0.5 "/></g></g></g><g fill="#000000" fill-opacity="1"><g transform="translate(3160.728829, 1454.954811)"><g/></g></g></svg>