<svg xmlns="http://www.w3.org/2000/svg" xmlns:xlink="http://www.w3.org/1999/xlink" width="144" zoomAndPan="magnify" viewBox="0 0 108 30.000001" height="40" preserveAspectRatio="xMidYMid meet" version="1.0"><defs><g/><clipPath id="a8927de028"><path d="M 29.761719 11.195312 L 35.570312 11.195312 L 35.570312 17.726562 L 29.761719 17.726562 Z M 29.761719 11.195312 " clip-rule="nonzero"/></clipPath></defs><g fill="#000000" fill-opacity="1"><g transform="translate(4.153165, 17.584096)"><g><path d="M 2.753906 -5.226562 L 0.582031 -5.226562 C 0.515625 -5.226562 0.46875 -5.179688 0.46875 -5.113281 C 0.46875 -5.054688 0.515625 -5.015625 0.582031 -5.015625 L 0.875 -5.015625 L 0.875 -0.210938 L 0.515625 -0.210938 C 0.457031 -0.210938 0.410156 -0.171875 0.410156 -0.105469 C 0.410156 -0.0390625 0.457031 0 0.515625 0 L 2.402344 0 C 2.464844 0 2.507812 -0.0390625 2.507812 -0.105469 C 2.507812 -0.171875 2.464844 -0.210938 2.402344 -0.210938 L 2.039062 -0.210938 L 2.039062 -2.121094 L 2.753906 -2.121094 C 3.695312 -2.121094 4.238281 -2.738281 4.238281 -3.679688 C 4.238281 -4.605469 3.695312 -5.226562 2.753906 -5.226562 Z M 1.8125 -0.210938 L 1.097656 -0.210938 L 1.097656 -5.015625 L 1.8125 -5.015625 Z M 2.753906 -2.328125 L 2.039062 -2.328125 L 2.039062 -5.015625 L 2.753906 -5.015625 C 2.867188 -5.015625 2.972656 -5.007812 3.066406 -4.984375 L 3.066406 -2.359375 C 2.972656 -2.335938 2.867188 -2.328125 2.753906 -2.328125 Z M 3.292969 -2.425781 L 3.292969 -4.917969 C 3.761719 -4.730469 4.015625 -4.277344 4.015625 -3.679688 C 4.015625 -3.066406 3.761719 -2.613281 3.292969 -2.425781 Z M 3.292969 -2.425781 "/></g></g></g><g fill="#000000" fill-opacity="1"><g transform="translate(10.505437, 17.584096)"><g><path d="M 2.933594 -5.34375 C 1.304688 -5.34375 0.222656 -4.246094 0.222656 -2.613281 C 0.222656 -0.984375 1.304688 0.113281 2.933594 0.113281 C 4.554688 0.113281 5.636719 -0.984375 5.636719 -2.613281 C 5.636719 -4.246094 4.554688 -5.34375 2.933594 -5.34375 Z M 1.597656 -0.425781 L 1.597656 -4.808594 C 1.96875 -5.015625 2.425781 -5.136719 2.933594 -5.136719 C 3.441406 -5.136719 3.890625 -5.015625 4.261719 -4.808594 L 4.261719 -0.425781 C 3.890625 -0.214844 3.441406 -0.0976562 2.933594 -0.0976562 C 2.425781 -0.0976562 1.96875 -0.214844 1.597656 -0.425781 Z M 0.441406 -2.613281 C 0.441406 -3.5 0.785156 -4.21875 1.375 -4.65625 L 1.375 -0.574219 C 0.785156 -1.007812 0.441406 -1.722656 0.441406 -2.613281 Z M 4.484375 -0.574219 L 4.484375 -4.65625 C 5.074219 -4.226562 5.417969 -3.507812 5.417969 -2.613281 C 5.417969 -1.722656 5.074219 -1.007812 4.484375 -0.574219 Z M 4.484375 -0.574219 "/></g></g></g><g fill="#000000" fill-opacity="1"><g transform="translate(18.365397, 17.584096)"><g><path d="M 3.238281 -2.230469 L 1.023438 -4.859375 C 1.238281 -5.015625 1.539062 -5.113281 1.910156 -5.113281 C 2.5 -5.113281 3.058594 -4.679688 3.058594 -4.246094 L 3.058594 -4.128906 C 3.058594 -4.066406 3.113281 -4.015625 3.171875 -4.015625 C 3.230469 -4.015625 3.285156 -4.066406 3.285156 -4.128906 L 3.285156 -5.226562 C 3.285156 -5.285156 3.230469 -5.328125 3.171875 -5.328125 C 3.113281 -5.328125 3.058594 -5.285156 3.058594 -5.226562 L 3.058594 -4.816406 C 2.800781 -5.128906 2.351562 -5.335938 1.910156 -5.335938 C 0.992188 -5.335938 0.433594 -4.808594 0.433594 -4.128906 C 0.433594 -3.777344 0.597656 -3.390625 0.910156 -3.015625 L 3.015625 -0.507812 C 2.769531 -0.269531 2.402344 -0.113281 1.957031 -0.113281 C 1.210938 -0.113281 0.542969 -0.582031 0.542969 -1.105469 L 0.542969 -1.3125 C 0.542969 -1.375 0.492188 -1.417969 0.433594 -1.417969 C 0.375 -1.417969 0.320312 -1.375 0.320312 -1.3125 L 0.320312 0 C 0.320312 0.0585938 0.375 0.105469 0.433594 0.105469 C 0.492188 0.105469 0.542969 0.0585938 0.542969 0 L 0.542969 -0.5 C 0.851562 -0.121094 1.425781 0.113281 1.957031 0.113281 C 2.941406 0.113281 3.589844 -0.566406 3.589844 -1.3125 C 3.589844 -1.628906 3.484375 -1.941406 3.238281 -2.230469 Z M 0.65625 -4.128906 C 0.65625 -4.34375 0.730469 -4.546875 0.859375 -4.710938 L 3.066406 -2.089844 C 3.269531 -1.851562 3.367188 -1.574219 3.367188 -1.3125 C 3.367188 -1.089844 3.292969 -0.867188 3.164062 -0.679688 L 1.082031 -3.15625 C 0.804688 -3.492188 0.65625 -3.820312 0.65625 -4.128906 Z M 0.65625 -4.128906 "/></g></g></g><g fill="#000000" fill-opacity="1"><g transform="translate(24.202666, 17.584096)"><g><path d="M 2.53125 -0.210938 L 2.082031 -0.210938 L 2.082031 -5.015625 L 2.457031 -5.015625 C 2.515625 -5.015625 2.558594 -5.0625 2.558594 -5.121094 C 2.558594 -5.179688 2.515625 -5.226562 2.457031 -5.226562 L 0.574219 -5.226562 C 0.5 -5.226562 0.457031 -5.179688 0.457031 -5.121094 C 0.457031 -5.0625 0.5 -5.015625 0.574219 -5.015625 L 0.917969 -5.015625 L 0.917969 -0.210938 L 0.515625 -0.210938 C 0.457031 -0.210938 0.410156 -0.164062 0.410156 -0.105469 C 0.410156 -0.0390625 0.457031 0 0.515625 0 L 2.53125 0 C 2.589844 0 2.636719 -0.0390625 2.636719 -0.105469 C 2.636719 -0.164062 2.589844 -0.210938 2.53125 -0.210938 Z M 1.140625 -0.210938 L 1.140625 -5.015625 L 1.859375 -5.015625 L 1.859375 -0.210938 Z M 1.140625 -0.210938 "/></g></g></g><g fill="#000000" fill-opacity="1"><g transform="translate(29.24877, 17.584096)"><g/></g></g><g fill="#000000" fill-opacity="1"><g transform="translate(33.488781, 17.584096)"><g/></g></g><g fill="#000000" fill-opacity="1"><g transform="translate(37.728798, 17.584096)"><g><path d="M 5.238281 -0.210938 L 4.933594 -0.210938 L 3.417969 -5.128906 C 3.394531 -5.195312 3.351562 -5.226562 3.292969 -5.226562 L 1.65625 -5.226562 C 1.605469 -5.226562 1.558594 -5.179688 1.558594 -5.121094 C 1.558594 -5.0625 1.605469 -5.015625 1.65625 -5.015625 L 2.089844 -5.015625 L 0.539062 -0.210938 L 0.121094 -0.210938 C 0.0664062 -0.210938 0.0234375 -0.15625 0.0234375 -0.105469 C 0.0234375 -0.0429688 0.0664062 0 0.121094 0 L 1.269531 0 C 1.320312 0 1.367188 -0.0429688 1.367188 -0.105469 C 1.367188 -0.15625 1.320312 -0.210938 1.269531 -0.210938 L 0.769531 -0.210938 L 1.179688 -1.476562 L 3.34375 -1.476562 L 3.738281 -0.210938 L 3.320312 -0.210938 C 3.269531 -0.210938 3.222656 -0.15625 3.222656 -0.105469 C 3.222656 -0.0429688 3.269531 0 3.320312 0 L 5.238281 0 C 5.292969 0 5.335938 -0.0429688 5.335938 -0.105469 C 5.335938 -0.15625 5.292969 -0.210938 5.238281 -0.210938 Z M 3.972656 -0.210938 L 2.492188 -5.015625 L 3.222656 -5.015625 L 4.703125 -0.210938 Z M 3.285156 -1.6875 L 1.246094 -1.6875 L 2.292969 -4.902344 Z M 3.285156 -1.6875 "/></g></g></g><g fill="#000000" fill-opacity="1"><g transform="translate(45.111076, 17.584096)"><g><path d="M 5.015625 -5.226562 L 3.792969 -5.226562 C 3.726562 -5.226562 3.679688 -5.179688 3.679688 -5.121094 C 3.679688 -5.0625 3.726562 -5.015625 3.792969 -5.015625 L 4.285156 -5.015625 L 4.285156 -1.933594 L 2.03125 -5.195312 C 2.015625 -5.21875 1.984375 -5.226562 1.964844 -5.226562 L 0.367188 -5.226562 C 0.3125 -5.226562 0.269531 -5.1875 0.269531 -5.121094 C 0.269531 -5.0625 0.3125 -5.015625 0.367188 -5.015625 L 0.777344 -5.015625 L 0.777344 -0.210938 L 0.304688 -0.210938 C 0.253906 -0.210938 0.203125 -0.164062 0.203125 -0.105469 C 0.203125 -0.0390625 0.253906 0 0.304688 0 L 1.679688 0 C 1.738281 0 1.792969 -0.0390625 1.792969 -0.105469 C 1.792969 -0.164062 1.738281 -0.210938 1.679688 -0.210938 L 1 -0.210938 L 1 -4.648438 L 4.203125 -0.03125 C 4.269531 0.0664062 4.335938 0.113281 4.402344 0.113281 C 4.472656 0.113281 4.507812 0.03125 4.507812 -0.113281 L 4.507812 -5.015625 L 5.015625 -5.015625 C 5.074219 -5.015625 5.121094 -5.0625 5.121094 -5.121094 C 5.121094 -5.179688 5.074219 -5.226562 5.015625 -5.226562 Z M 4.285156 -0.296875 L 1.015625 -5.015625 L 1.886719 -5.015625 L 4.285156 -1.550781 Z M 4.285156 -0.296875 "/></g></g></g><g fill="#000000" fill-opacity="1"><g transform="translate(52.433641, 17.584096)"><g><path d="M 2.933594 -5.34375 C 1.304688 -5.34375 0.222656 -4.246094 0.222656 -2.613281 C 0.222656 -0.984375 1.304688 0.113281 2.933594 0.113281 C 4.554688 0.113281 5.636719 -0.984375 5.636719 -2.613281 C 5.636719 -4.246094 4.554688 -5.34375 2.933594 -5.34375 Z M 1.597656 -0.425781 L 1.597656 -4.808594 C 1.96875 -5.015625 2.425781 -5.136719 2.933594 -5.136719 C 3.441406 -5.136719 3.890625 -5.015625 4.261719 -4.808594 L 4.261719 -0.425781 C 3.890625 -0.214844 3.441406 -0.0976562 2.933594 -0.0976562 C 2.425781 -0.0976562 1.96875 -0.214844 1.597656 -0.425781 Z M 0.441406 -2.613281 C 0.441406 -3.5 0.785156 -4.21875 1.375 -4.65625 L 1.375 -0.574219 C 0.785156 -1.007812 0.441406 -1.722656 0.441406 -2.613281 Z M 4.484375 -0.574219 L 4.484375 -4.65625 C 5.074219 -4.226562 5.417969 -3.507812 5.417969 -2.613281 C 5.417969 -1.722656 5.074219 -1.007812 4.484375 -0.574219 Z M 4.484375 -0.574219 "/></g></g></g><g fill="#000000" fill-opacity="1"><g transform="translate(60.293602, 17.584096)"><g><path d="M 5.015625 -5.226562 L 3.792969 -5.226562 C 3.726562 -5.226562 3.679688 -5.179688 3.679688 -5.121094 C 3.679688 -5.0625 3.726562 -5.015625 3.792969 -5.015625 L 4.285156 -5.015625 L 4.285156 -1.933594 L 2.03125 -5.195312 C 2.015625 -5.21875 1.984375 -5.226562 1.964844 -5.226562 L 0.367188 -5.226562 C 0.3125 -5.226562 0.269531 -5.1875 0.269531 -5.121094 C 0.269531 -5.0625 0.3125 -5.015625 0.367188 -5.015625 L 0.777344 -5.015625 L 0.777344 -0.210938 L 0.304688 -0.210938 C 0.253906 -0.210938 0.203125 -0.164062 0.203125 -0.105469 C 0.203125 -0.0390625 0.253906 0 0.304688 0 L 1.679688 0 C 1.738281 0 1.792969 -0.0390625 1.792969 -0.105469 C 1.792969 -0.164062 1.738281 -0.210938 1.679688 -0.210938 L 1 -0.210938 L 1 -4.648438 L 4.203125 -0.03125 C 4.269531 0.0664062 4.335938 0.113281 4.402344 0.113281 C 4.472656 0.113281 4.507812 0.03125 4.507812 -0.113281 L 4.507812 -5.015625 L 5.015625 -5.015625 C 5.074219 -5.015625 5.121094 -5.0625 5.121094 -5.121094 C 5.121094 -5.179688 5.074219 -5.226562 5.015625 -5.226562 Z M 4.285156 -0.296875 L 1.015625 -5.015625 L 1.886719 -5.015625 L 4.285156 -1.550781 Z M 4.285156 -0.296875 "/></g></g></g><g fill="#000000" fill-opacity="1"><g transform="translate(67.616167, 17.584096)"><g><path d="M 4.636719 -1.464844 C 4.636719 -2.074219 4.253906 -2.597656 3.710938 -2.800781 C 4.148438 -3 4.464844 -3.449219 4.464844 -3.957031 C 4.464844 -4.648438 3.890625 -5.226562 3.195312 -5.226562 L 0.582031 -5.226562 C 0.507812 -5.226562 0.46875 -5.171875 0.46875 -5.121094 C 0.46875 -5.066406 0.507812 -5.015625 0.582031 -5.015625 L 0.925781 -5.015625 L 0.925781 -0.210938 L 0.523438 -0.210938 C 0.449219 -0.210938 0.410156 -0.148438 0.410156 -0.105469 C 0.410156 -0.0507812 0.449219 0 0.523438 0 L 3.210938 0 C 4 -0.0078125 4.636719 -0.65625 4.636719 -1.464844 Z M 1.148438 -0.210938 L 1.148438 -5.015625 L 1.867188 -5.015625 L 1.867188 -0.210938 Z M 3.34375 -5 L 3.34375 -2.902344 C 3.292969 -2.902344 3.246094 -2.894531 3.195312 -2.894531 L 2.089844 -2.894531 L 2.089844 -5.015625 L 3.195312 -5.015625 C 3.246094 -5.015625 3.292969 -5.007812 3.34375 -5 Z M 4.238281 -3.957031 C 4.238281 -3.507812 3.957031 -3.121094 3.566406 -2.972656 L 3.566406 -4.941406 C 3.957031 -4.785156 4.238281 -4.398438 4.238281 -3.957031 Z M 3.195312 -0.210938 L 2.089844 -0.210938 L 2.089844 -2.6875 L 3.195312 -2.6875 C 3.246094 -2.6875 3.292969 -2.6875 3.34375 -2.679688 L 3.34375 -0.214844 C 3.292969 -0.210938 3.246094 -0.210938 3.195312 -0.210938 Z M 3.566406 -0.269531 L 3.566406 -2.628906 C 4.0625 -2.46875 4.410156 -2.007812 4.410156 -1.464844 C 4.410156 -0.902344 4.0625 -0.433594 3.566406 -0.269531 Z M 3.566406 -0.269531 "/></g></g></g><g fill="#000000" fill-opacity="1"><g transform="translate(74.62526, 17.584096)"><g><path d="M 2.933594 -5.34375 C 1.304688 -5.34375 0.222656 -4.246094 0.222656 -2.613281 C 0.222656 -0.984375 1.304688 0.113281 2.933594 0.113281 C 4.554688 0.113281 5.636719 -0.984375 5.636719 -2.613281 C 5.636719 -4.246094 4.554688 -5.34375 2.933594 -5.34375 Z M 1.597656 -0.425781 L 1.597656 -4.808594 C 1.96875 -5.015625 2.425781 -5.136719 2.933594 -5.136719 C 3.441406 -5.136719 3.890625 -5.015625 4.261719 -4.808594 L 4.261719 -0.425781 C 3.890625 -0.214844 3.441406 -0.0976562 2.933594 -0.0976562 C 2.425781 -0.0976562 1.96875 -0.214844 1.597656 -0.425781 Z M 0.441406 -2.613281 C 0.441406 -3.5 0.785156 -4.21875 1.375 -4.65625 L 1.375 -0.574219 C 0.785156 -1.007812 0.441406 -1.722656 0.441406 -2.613281 Z M 4.484375 -0.574219 L 4.484375 -4.65625 C 5.074219 -4.226562 5.417969 -3.507812 5.417969 -2.613281 C 5.417969 -1.722656 5.074219 -1.007812 4.484375 -0.574219 Z M 4.484375 -0.574219 "/></g></g></g><g fill="#000000" fill-opacity="1"><g transform="translate(82.485212, 17.584096)"><g><path d="M 5.238281 -0.210938 L 4.933594 -0.210938 L 3.417969 -5.128906 C 3.394531 -5.195312 3.351562 -5.226562 3.292969 -5.226562 L 1.65625 -5.226562 C 1.605469 -5.226562 1.558594 -5.179688 1.558594 -5.121094 C 1.558594 -5.0625 1.605469 -5.015625 1.65625 -5.015625 L 2.089844 -5.015625 L 0.539062 -0.210938 L 0.121094 -0.210938 C 0.0664062 -0.210938 0.0234375 -0.15625 0.0234375 -0.105469 C 0.0234375 -0.0429688 0.0664062 0 0.121094 0 L 1.269531 0 C 1.320312 0 1.367188 -0.0429688 1.367188 -0.105469 C 1.367188 -0.15625 1.320312 -0.210938 1.269531 -0.210938 L 0.769531 -0.210938 L 1.179688 -1.476562 L 3.34375 -1.476562 L 3.738281 -0.210938 L 3.320312 -0.210938 C 3.269531 -0.210938 3.222656 -0.15625 3.222656 -0.105469 C 3.222656 -0.0429688 3.269531 0 3.320312 0 L 5.238281 0 C 5.292969 0 5.335938 -0.0429688 5.335938 -0.105469 C 5.335938 -0.15625 5.292969 -0.210938 5.238281 -0.210938 Z M 3.972656 -0.210938 L 2.492188 -5.015625 L 3.222656 -5.015625 L 4.703125 -0.210938 Z M 3.285156 -1.6875 L 1.246094 -1.6875 L 2.292969 -4.902344 Z M 3.285156 -1.6875 "/></g></g></g><g fill="#000000" fill-opacity="1"><g transform="translate(89.867495, 17.584096)"><g><path d="M 4.785156 -0.210938 L 4.449219 -0.210938 L 4.449219 -1.476562 C 4.449219 -1.957031 4.136719 -2.359375 3.710938 -2.507812 C 4.164062 -2.746094 4.480469 -3.222656 4.480469 -3.792969 C 4.480469 -4.71875 3.867188 -5.226562 3.007812 -5.226562 L 0.558594 -5.226562 C 0.492188 -5.226562 0.457031 -5.195312 0.457031 -5.136719 C 0.457031 -5.066406 0.492188 -5.023438 0.558594 -5.023438 L 0.910156 -5.023438 L 0.910156 -0.210938 L 0.515625 -0.210938 C 0.457031 -0.210938 0.410156 -0.164062 0.410156 -0.105469 C 0.410156 -0.0429688 0.457031 0 0.515625 0 L 2.304688 0 C 2.375 0 2.410156 -0.0429688 2.410156 -0.105469 C 2.410156 -0.164062 2.375 -0.210938 2.304688 -0.210938 L 2.074219 -0.210938 L 2.074219 -2.359375 L 3.253906 -2.359375 L 3.253906 -0.113281 C 3.253906 -0.0429688 3.300781 0 3.367188 0 L 4.785156 0 C 4.84375 0 4.898438 -0.0390625 4.898438 -0.105469 C 4.898438 -0.164062 4.84375 -0.210938 4.785156 -0.210938 Z M 1.851562 -0.210938 L 1.132812 -0.210938 L 1.132812 -5.023438 L 1.851562 -5.023438 Z M 3.074219 -2.566406 L 2.074219 -2.566406 L 2.074219 -5.023438 L 3.007812 -5.023438 C 3.089844 -5.023438 3.171875 -5.015625 3.253906 -5.007812 L 3.253906 -2.582031 C 3.195312 -2.574219 3.136719 -2.566406 3.074219 -2.566406 Z M 4.253906 -3.792969 C 4.253906 -3.261719 3.933594 -2.8125 3.476562 -2.640625 L 3.476562 -4.957031 C 3.957031 -4.808594 4.253906 -4.410156 4.253906 -3.792969 Z M 3.476562 -0.210938 L 3.476562 -2.351562 C 3.894531 -2.292969 4.226562 -1.910156 4.226562 -1.476562 L 4.226562 -0.210938 Z M 3.476562 -0.210938 "/></g></g></g><g fill="#000000" fill-opacity="1"><g transform="translate(96.988534, 17.584096)"><g><path d="M 2.679688 -5.226562 L 0.566406 -5.226562 C 0.507812 -5.226562 0.460938 -5.179688 0.460938 -5.121094 C 0.460938 -5.0625 0.507812 -5.015625 0.566406 -5.015625 L 0.925781 -5.015625 L 0.925781 -0.210938 L 0.515625 -0.210938 C 0.457031 -0.210938 0.410156 -0.164062 0.410156 -0.105469 C 0.410156 -0.0390625 0.457031 0 0.515625 0 L 2.679688 0 C 4.246094 0 5.292969 -1.046875 5.292969 -2.621094 C 5.292969 -4.1875 4.246094 -5.226562 2.679688 -5.226562 Z M 1.148438 -0.210938 L 1.148438 -5.015625 L 1.867188 -5.015625 L 1.867188 -0.210938 Z M 2.679688 -0.210938 L 2.089844 -0.210938 L 2.089844 -5.015625 L 2.679688 -5.015625 C 3.1875 -5.015625 3.636719 -4.898438 4 -4.671875 L 4 -0.550781 C 3.636719 -0.328125 3.1875 -0.210938 2.679688 -0.210938 Z M 4.226562 -0.710938 L 4.226562 -4.523438 C 4.753906 -4.097656 5.066406 -3.433594 5.066406 -2.621094 C 5.066406 -1.804688 4.753906 -1.132812 4.226562 -0.710938 Z M 4.226562 -0.710938 "/></g></g></g><g fill="#000000" fill-opacity="1"><g transform="translate(104.50516, 17.584096)"><g/></g></g><g clip-path="url(#a8927de028)"><path fill="#000000" d="M 29.84375 13.726562 C 29.851562 13.796875 29.863281 13.867188 29.882812 13.933594 C 29.886719 13.9375 29.886719 13.941406 29.886719 13.941406 C 29.886719 13.941406 29.886719 13.941406 29.886719 13.945312 C 30.113281 13.210938 31.101562 12.640625 32.332031 12.554688 L 32.332031 15.324219 L 31.289062 15.394531 C 31.246094 15.335938 31.175781 15.300781 31.097656 15.300781 C 30.964844 15.300781 30.859375 15.402344 30.859375 15.53125 C 30.859375 15.660156 30.964844 15.761719 31.097656 15.761719 C 31.179688 15.761719 31.253906 15.722656 31.296875 15.660156 L 32.332031 15.738281 L 32.332031 16.136719 C 32.027344 16.261719 31.8125 16.554688 31.8125 16.898438 C 31.8125 17.355469 32.191406 17.726562 32.664062 17.726562 C 33.132812 17.726562 33.515625 17.355469 33.515625 16.898438 C 33.515625 16.554688 33.300781 16.261719 32.992188 16.136719 L 32.992188 15.738281 L 34.03125 15.660156 C 34.074219 15.722656 34.148438 15.761719 34.230469 15.761719 C 34.363281 15.761719 34.46875 15.660156 34.46875 15.53125 C 34.46875 15.402344 34.363281 15.300781 34.230469 15.300781 C 34.152344 15.300781 34.082031 15.335938 34.039062 15.394531 L 32.992188 15.324219 L 32.992188 12.550781 C 34.230469 12.640625 35.222656 13.210938 35.449219 13.945312 C 35.46875 13.871094 35.484375 13.792969 35.492188 13.71875 C 35.535156 13.414062 35.570312 12.867188 35.304688 12.472656 C 35.324219 12.613281 35.316406 12.792969 35.214844 12.878906 C 35 12.605469 34.664062 12.371094 34.25 12.199219 C 34.242188 12.195312 34.238281 12.195312 34.230469 12.191406 C 34.222656 12.1875 34.210938 12.183594 34.203125 12.179688 C 34.132812 12.152344 34.058594 12.125 33.980469 12.101562 C 32.910156 11.691406 32.667969 11.195312 32.667969 11.195312 L 32.667969 11.207031 L 32.667969 11.195312 C 32.667969 11.195312 32.425781 11.695312 31.347656 12.105469 C 31.277344 12.128906 31.207031 12.152344 31.136719 12.179688 C 31.125 12.183594 31.117188 12.1875 31.105469 12.191406 C 30.683594 12.363281 30.339844 12.601562 30.117188 12.878906 C 30.019531 12.792969 30.011719 12.613281 30.027344 12.472656 C 29.761719 12.871094 29.796875 13.425781 29.84375 13.726562 Z M 32.664062 17.3125 C 32.429688 17.3125 32.238281 17.128906 32.238281 16.898438 C 32.238281 16.671875 32.429688 16.484375 32.664062 16.484375 C 32.898438 16.484375 33.089844 16.671875 33.089844 16.898438 C 33.089844 17.128906 32.898438 17.3125 32.664062 17.3125 Z M 32.664062 17.3125 " fill-opacity="1" fill-rule="nonzero"/></g></svg>